<mxfile host="app.diagrams.net" modified="2021-11-02T06:38:29.608Z" agent="5.0 (Windows)" etag="F63zFMj0B1CVQeV7D1Yc" version="15.6.3" type="github">
  <diagram name="Page-1" id="b5b7bab2-c9e2-2cf4-8b2a-24fd1a2a6d21">
    <mxGraphModel dx="5303" dy="1704" grid="1" gridSize="10" guides="1" tooltips="1" connect="1" arrows="1" fold="1" page="1" pageScale="1" pageWidth="827" pageHeight="1169" background="none" math="0" shadow="0">
      <root>
        <mxCell id="0" />
        <mxCell id="1" style="" parent="0" />
        <mxCell id="nJZEPm9KAdilQFLufLrE-9" value="" style="rounded=0;whiteSpace=wrap;html=1;align=left;dashed=1;fillColor=#dae8fc;strokeColor=#6c8ebf;" parent="1" vertex="1">
          <mxGeometry x="-250" y="1303.33" width="1580" height="1426.67" as="geometry" />
        </mxCell>
        <mxCell id="nJZEPm9KAdilQFLufLrE-135" value="&lt;font style=&quot;font-size: 13px&quot;&gt;&lt;br&gt;&lt;/font&gt;" style="rounded=0;whiteSpace=wrap;html=1;dashed=1;" parent="1" vertex="1">
          <mxGeometry x="-227.06" y="1470" width="536.12" height="140" as="geometry" />
        </mxCell>
        <mxCell id="-1jfbta0snUhKDycxlzX-37" value="&lt;font style=&quot;font-size: 13px&quot;&gt;&lt;br&gt;&lt;/font&gt;" style="rounded=0;whiteSpace=wrap;html=1;dashed=1;" parent="1" vertex="1">
          <mxGeometry x="543.88" y="2040" width="536.12" height="140" as="geometry" />
        </mxCell>
        <mxCell id="-1jfbta0snUhKDycxlzX-35" value="&lt;font style=&quot;font-size: 13px&quot;&gt;&lt;br&gt;&lt;/font&gt;" style="rounded=0;whiteSpace=wrap;html=1;dashed=1;" parent="1" vertex="1">
          <mxGeometry x="543.88" y="1850" width="536.12" height="140" as="geometry" />
        </mxCell>
        <mxCell id="-1jfbta0snUhKDycxlzX-20" value="&lt;font style=&quot;font-size: 13px&quot;&gt;&lt;br&gt;&lt;/font&gt;" style="rounded=0;whiteSpace=wrap;html=1;dashed=1;" parent="1" vertex="1">
          <mxGeometry x="1110" y="1965" width="200" height="185" as="geometry" />
        </mxCell>
        <mxCell id="-1jfbta0snUhKDycxlzX-34" style="edgeStyle=orthogonalEdgeStyle;rounded=0;orthogonalLoop=1;jettySize=auto;html=1;entryX=1;entryY=0.5;entryDx=0;entryDy=0;dashed=1;endArrow=classic;endFill=1;exitX=0;exitY=0.5;exitDx=0;exitDy=0;" parent="1" source="nJZEPm9KAdilQFLufLrE-83" target="nJZEPm9KAdilQFLufLrE-92" edge="1">
          <mxGeometry relative="1" as="geometry">
            <Array as="points">
              <mxPoint x="1090" y="2087" />
              <mxPoint x="1090" y="1665" />
            </Array>
          </mxGeometry>
        </mxCell>
        <mxCell id="nJZEPm9KAdilQFLufLrE-138" value="&lt;font style=&quot;font-size: 13px&quot;&gt;&lt;br&gt;&lt;/font&gt;" style="rounded=0;whiteSpace=wrap;html=1;dashed=1;" parent="1" vertex="1">
          <mxGeometry x="-222.97" y="1654.5" width="536.12" height="140" as="geometry" />
        </mxCell>
        <mxCell id="nJZEPm9KAdilQFLufLrE-153" style="edgeStyle=orthogonalEdgeStyle;rounded=0;jumpStyle=line;orthogonalLoop=1;jettySize=auto;html=1;dashed=1;fontSize=15;fontColor=#1A1A1A;endArrow=classic;endFill=1;strokeWidth=1;" parent="1" source="nJZEPm9KAdilQFLufLrE-74" target="6elNYPJr9ZTZkZdLtBfF-183" edge="1">
          <mxGeometry relative="1" as="geometry">
            <Array as="points">
              <mxPoint x="-89" y="980" />
              <mxPoint x="195" y="980" />
            </Array>
          </mxGeometry>
        </mxCell>
        <mxCell id="nJZEPm9KAdilQFLufLrE-74" value="" style="rounded=0;whiteSpace=wrap;html=1;align=left;dashed=1;" parent="1" vertex="1">
          <mxGeometry x="-234.12" y="385" width="290" height="140" as="geometry" />
        </mxCell>
        <mxCell id="nJZEPm9KAdilQFLufLrE-10" value="" style="rounded=0;whiteSpace=wrap;html=1;align=left;dashed=1;fillColor=#d5e8d4;strokeColor=#82b366;" parent="1" vertex="1">
          <mxGeometry x="1350" y="1305" width="1460" height="1425" as="geometry" />
        </mxCell>
        <mxCell id="6elNYPJr9ZTZkZdLtBfF-255" style="edgeStyle=orthogonalEdgeStyle;rounded=0;orthogonalLoop=1;jettySize=auto;html=1;dashed=1;fontColor=#1A1A1A;endArrow=classic;endFill=1;strokeColor=#1A1A1A;fillColor=#D4E1F5;strokeWidth=2;" parent="1" source="6elNYPJr9ZTZkZdLtBfF-254" target="6elNYPJr9ZTZkZdLtBfF-184" edge="1">
          <mxGeometry relative="1" as="geometry">
            <Array as="points">
              <mxPoint x="1605" y="990" />
            </Array>
          </mxGeometry>
        </mxCell>
        <mxCell id="6elNYPJr9ZTZkZdLtBfF-254" value="" style="rounded=0;whiteSpace=wrap;html=1;dashed=1;align=left;" parent="1" vertex="1">
          <mxGeometry x="1452.63" y="420" width="304.74" height="96.5" as="geometry" />
        </mxCell>
        <mxCell id="6elNYPJr9ZTZkZdLtBfF-129" value="" style="rounded=0;whiteSpace=wrap;html=1;dashed=1;align=left;" parent="1" vertex="1">
          <mxGeometry x="2820" y="363" width="650" height="467" as="geometry" />
        </mxCell>
        <mxCell id="6elNYPJr9ZTZkZdLtBfF-257" style="edgeStyle=orthogonalEdgeStyle;rounded=0;orthogonalLoop=1;jettySize=auto;html=1;dashed=1;fontColor=#1A1A1A;endArrow=classic;endFill=1;strokeColor=#1A1A1A;fillColor=#D4E1F5;strokeWidth=2;" parent="1" source="6elNYPJr9ZTZkZdLtBfF-127" target="6elNYPJr9ZTZkZdLtBfF-184" edge="1">
          <mxGeometry relative="1" as="geometry">
            <Array as="points">
              <mxPoint x="2533" y="990" />
            </Array>
          </mxGeometry>
        </mxCell>
        <mxCell id="6elNYPJr9ZTZkZdLtBfF-127" value="" style="rounded=0;whiteSpace=wrap;html=1;dashed=1;align=left;" parent="1" vertex="1">
          <mxGeometry x="2324.32" y="371" width="417.12" height="130" as="geometry" />
        </mxCell>
        <mxCell id="6elNYPJr9ZTZkZdLtBfF-256" style="edgeStyle=orthogonalEdgeStyle;rounded=0;orthogonalLoop=1;jettySize=auto;html=1;dashed=1;fontColor=#1A1A1A;endArrow=classic;endFill=1;strokeColor=#1A1A1A;fillColor=#D4E1F5;strokeWidth=2;" parent="1" source="6elNYPJr9ZTZkZdLtBfF-116" target="6elNYPJr9ZTZkZdLtBfF-184" edge="1">
          <mxGeometry relative="1" as="geometry">
            <Array as="points">
              <mxPoint x="2110" y="990" />
            </Array>
          </mxGeometry>
        </mxCell>
        <mxCell id="6elNYPJr9ZTZkZdLtBfF-116" value="" style="rounded=0;whiteSpace=wrap;html=1;dashed=1;align=left;" parent="1" vertex="1">
          <mxGeometry x="1885" y="368.5" width="420" height="133" as="geometry" />
        </mxCell>
        <mxCell id="6elNYPJr9ZTZkZdLtBfF-263" style="edgeStyle=orthogonalEdgeStyle;rounded=0;orthogonalLoop=1;jettySize=auto;html=1;dashed=1;fontColor=#1A1A1A;endArrow=classic;endFill=1;strokeColor=#1A1A1A;strokeWidth=2;fillColor=#D4E1F5;" parent="1" source="6elNYPJr9ZTZkZdLtBfF-94" target="6elNYPJr9ZTZkZdLtBfF-181" edge="1">
          <mxGeometry relative="1" as="geometry">
            <Array as="points">
              <mxPoint x="1065" y="980" />
              <mxPoint x="790" y="980" />
            </Array>
          </mxGeometry>
        </mxCell>
        <mxCell id="-1jfbta0snUhKDycxlzX-41" value="APN2" style="edgeLabel;html=1;align=center;verticalAlign=middle;resizable=0;points=[];" parent="6elNYPJr9ZTZkZdLtBfF-263" vertex="1" connectable="0">
          <mxGeometry x="0.0128" relative="1" as="geometry">
            <mxPoint as="offset" />
          </mxGeometry>
        </mxCell>
        <mxCell id="6elNYPJr9ZTZkZdLtBfF-94" value="" style="rounded=0;whiteSpace=wrap;html=1;dashed=1;align=left;" parent="1" vertex="1">
          <mxGeometry x="815" y="742" width="500" height="150" as="geometry" />
        </mxCell>
        <mxCell id="6elNYPJr9ZTZkZdLtBfF-83" value="" style="rounded=0;whiteSpace=wrap;html=1;dashed=1;align=left;" parent="1" vertex="1">
          <mxGeometry x="815" y="382" width="500" height="350" as="geometry" />
        </mxCell>
        <mxCell id="-6kII226NFBv02iHwysv-5" style="edgeStyle=orthogonalEdgeStyle;rounded=0;orthogonalLoop=1;jettySize=auto;html=1;startArrow=none;startFill=0;strokeColor=#000000;dashed=1;" parent="1" source="6elNYPJr9ZTZkZdLtBfF-50" target="6elNYPJr9ZTZkZdLtBfF-181" edge="1">
          <mxGeometry relative="1" as="geometry">
            <Array as="points">
              <mxPoint x="440" y="890" />
              <mxPoint x="790" y="890" />
            </Array>
          </mxGeometry>
        </mxCell>
        <mxCell id="6elNYPJr9ZTZkZdLtBfF-50" value="" style="rounded=0;whiteSpace=wrap;html=1;align=left;dashed=1;" parent="1" vertex="1">
          <mxGeometry x="241" y="382" width="269" height="150" as="geometry" />
        </mxCell>
        <mxCell id="-1jfbta0snUhKDycxlzX-19" style="edgeStyle=orthogonalEdgeStyle;rounded=0;orthogonalLoop=1;jettySize=auto;html=1;dashed=1;" parent="1" source="6elNYPJr9ZTZkZdLtBfF-4" target="nJZEPm9KAdilQFLufLrE-74" edge="1">
          <mxGeometry relative="1" as="geometry" />
        </mxCell>
        <mxCell id="6elNYPJr9ZTZkZdLtBfF-4" value="APP登录" style="rounded=0;whiteSpace=wrap;html=1;" parent="1" vertex="1">
          <mxGeometry x="-134.12" y="310" width="90" height="40" as="geometry" />
        </mxCell>
        <mxCell id="nJZEPm9KAdilQFLufLrE-79" style="edgeStyle=orthogonalEdgeStyle;rounded=0;orthogonalLoop=1;jettySize=auto;html=1;entryX=0.443;entryY=0;entryDx=0;entryDy=0;entryPerimeter=0;fontSize=13;fontColor=#1A1A1A;endArrow=oval;endFill=0;strokeWidth=1;" parent="1" source="6elNYPJr9ZTZkZdLtBfF-30" target="6elNYPJr9ZTZkZdLtBfF-50" edge="1">
          <mxGeometry relative="1" as="geometry" />
        </mxCell>
        <mxCell id="6elNYPJr9ZTZkZdLtBfF-30" value="社区功能" style="rounded=0;whiteSpace=wrap;html=1;" parent="1" vertex="1">
          <mxGeometry x="400" y="300" width="90" height="40" as="geometry" />
        </mxCell>
        <mxCell id="6elNYPJr9ZTZkZdLtBfF-185" style="edgeStyle=orthogonalEdgeStyle;rounded=0;orthogonalLoop=1;jettySize=auto;html=1;endArrow=oval;endFill=0;" parent="1" source="6elNYPJr9ZTZkZdLtBfF-33" target="6elNYPJr9ZTZkZdLtBfF-58" edge="1">
          <mxGeometry relative="1" as="geometry" />
        </mxCell>
        <mxCell id="6elNYPJr9ZTZkZdLtBfF-186" style="edgeStyle=orthogonalEdgeStyle;rounded=0;orthogonalLoop=1;jettySize=auto;html=1;endArrow=oval;endFill=0;" parent="1" source="6elNYPJr9ZTZkZdLtBfF-33" target="6elNYPJr9ZTZkZdLtBfF-59" edge="1">
          <mxGeometry relative="1" as="geometry" />
        </mxCell>
        <mxCell id="6elNYPJr9ZTZkZdLtBfF-33" value="体验中心功能" style="rounded=0;whiteSpace=wrap;html=1;" parent="1" vertex="1">
          <mxGeometry x="1550" y="313.5" width="110" height="40" as="geometry" />
        </mxCell>
        <mxCell id="6elNYPJr9ZTZkZdLtBfF-194" style="edgeStyle=orthogonalEdgeStyle;rounded=0;orthogonalLoop=1;jettySize=auto;html=1;endArrow=oval;endFill=0;" parent="1" source="6elNYPJr9ZTZkZdLtBfF-37" target="6elNYPJr9ZTZkZdLtBfF-83" edge="1">
          <mxGeometry relative="1" as="geometry" />
        </mxCell>
        <mxCell id="6elNYPJr9ZTZkZdLtBfF-37" value="爱车功能" style="rounded=0;whiteSpace=wrap;html=1;" parent="1" vertex="1">
          <mxGeometry x="1020" y="316" width="90" height="40" as="geometry" />
        </mxCell>
        <mxCell id="6elNYPJr9ZTZkZdLtBfF-39" value="&lt;span style=&quot;color: rgb(23 , 43 , 77) ; font-family: , &amp;#34;blinkmacsystemfont&amp;#34; , &amp;#34;segoe ui&amp;#34; , &amp;#34;roboto&amp;#34; , &amp;#34;oxygen&amp;#34; , &amp;#34;ubuntu&amp;#34; , &amp;#34;fira sans&amp;#34; , &amp;#34;droid sans&amp;#34; , &amp;#34;helvetica neue&amp;#34; , sans-serif ; font-size: 14px ; text-align: left ; background-color: rgb(255 , 255 , 255)&quot;&gt;资讯-News&lt;/span&gt;" style="rounded=0;whiteSpace=wrap;html=1;" parent="1" vertex="1">
          <mxGeometry x="340" y="406.5" width="90" height="40" as="geometry" />
        </mxCell>
        <mxCell id="6elNYPJr9ZTZkZdLtBfF-40" value="&lt;span style=&quot;color: rgb(23 , 43 , 77) ; font-family: , &amp;#34;blinkmacsystemfont&amp;#34; , &amp;#34;segoe ui&amp;#34; , &amp;#34;roboto&amp;#34; , &amp;#34;oxygen&amp;#34; , &amp;#34;ubuntu&amp;#34; , &amp;#34;fira sans&amp;#34; , &amp;#34;droid sans&amp;#34; , &amp;#34;helvetica neue&amp;#34; , sans-serif ; font-size: 14px ; text-align: left ; background-color: rgb(255 , 255 , 255)&quot;&gt;实时-Now&lt;/span&gt;" style="rounded=0;whiteSpace=wrap;html=1;" parent="1" vertex="1">
          <mxGeometry x="530" y="473.5" width="90" height="40" as="geometry" />
        </mxCell>
        <mxCell id="6elNYPJr9ZTZkZdLtBfF-41" value="&lt;div&gt;活动-Events&lt;/div&gt;" style="rounded=0;whiteSpace=wrap;html=1;" parent="1" vertex="1">
          <mxGeometry x="340" y="463" width="90" height="40" as="geometry" />
        </mxCell>
        <mxCell id="6elNYPJr9ZTZkZdLtBfF-43" value="在线直播&lt;span&gt; &lt;/span&gt;" style="rounded=0;whiteSpace=wrap;html=1;" parent="1" vertex="1">
          <mxGeometry x="530" y="406.5" width="90" height="40" as="geometry" />
        </mxCell>
        <mxCell id="6elNYPJr9ZTZkZdLtBfF-195" style="edgeStyle=orthogonalEdgeStyle;rounded=0;orthogonalLoop=1;jettySize=auto;html=1;entryX=0.5;entryY=0;entryDx=0;entryDy=0;endArrow=oval;endFill=0;" parent="1" source="6elNYPJr9ZTZkZdLtBfF-55" target="6elNYPJr9ZTZkZdLtBfF-116" edge="1">
          <mxGeometry relative="1" as="geometry" />
        </mxCell>
        <mxCell id="6elNYPJr9ZTZkZdLtBfF-55" value="售后故障" style="rounded=0;whiteSpace=wrap;html=1;" parent="1" vertex="1">
          <mxGeometry x="2050" y="300" width="90" height="40" as="geometry" />
        </mxCell>
        <mxCell id="6elNYPJr9ZTZkZdLtBfF-196" style="edgeStyle=orthogonalEdgeStyle;rounded=0;orthogonalLoop=1;jettySize=auto;html=1;entryX=0.5;entryY=0;entryDx=0;entryDy=0;endArrow=oval;endFill=0;" parent="1" source="6elNYPJr9ZTZkZdLtBfF-56" target="6elNYPJr9ZTZkZdLtBfF-127" edge="1">
          <mxGeometry relative="1" as="geometry" />
        </mxCell>
        <mxCell id="6elNYPJr9ZTZkZdLtBfF-56" value="商城故障" style="rounded=0;whiteSpace=wrap;html=1;" parent="1" vertex="1">
          <mxGeometry x="2487.88" y="300" width="90" height="40" as="geometry" />
        </mxCell>
        <mxCell id="6elNYPJr9ZTZkZdLtBfF-197" style="edgeStyle=orthogonalEdgeStyle;rounded=0;orthogonalLoop=1;jettySize=auto;html=1;endArrow=oval;endFill=0;" parent="1" source="6elNYPJr9ZTZkZdLtBfF-57" target="6elNYPJr9ZTZkZdLtBfF-129" edge="1">
          <mxGeometry relative="1" as="geometry" />
        </mxCell>
        <mxCell id="6elNYPJr9ZTZkZdLtBfF-57" value="个人中心故障" style="rounded=0;whiteSpace=wrap;html=1;" parent="1" vertex="1">
          <mxGeometry x="3100" y="300" width="90" height="40" as="geometry" />
        </mxCell>
        <mxCell id="6elNYPJr9ZTZkZdLtBfF-58" value="&lt;span style=&quot;color: rgb(23 , 43 , 77) ; font-family: , &amp;#34;blinkmacsystemfont&amp;#34; , &amp;#34;segoe ui&amp;#34; , &amp;#34;roboto&amp;#34; , &amp;#34;oxygen&amp;#34; , &amp;#34;ubuntu&amp;#34; , &amp;#34;fira sans&amp;#34; , &amp;#34;droid sans&amp;#34; , &amp;#34;helvetica neue&amp;#34; , sans-serif ; font-size: 14px ; text-align: left ; background-color: rgb(255 , 255 , 255)&quot;&gt;酒水服务&lt;/span&gt;" style="rounded=0;whiteSpace=wrap;html=1;" parent="1" vertex="1">
          <mxGeometry x="1500" y="436.5" width="90" height="40" as="geometry" />
        </mxCell>
        <mxCell id="6elNYPJr9ZTZkZdLtBfF-59" value="&lt;div style=&quot;text-align: left&quot;&gt;&lt;font color=&quot;#172b4d&quot;&gt;&lt;span style=&quot;font-size: 14px ; background-color: rgb(255 , 255 , 255)&quot;&gt;空间预约&lt;/span&gt;&lt;/font&gt;&lt;/div&gt;" style="rounded=0;whiteSpace=wrap;html=1;" parent="1" vertex="1">
          <mxGeometry x="1630" y="436.5" width="90" height="40" as="geometry" />
        </mxCell>
        <mxCell id="6elNYPJr9ZTZkZdLtBfF-63" value="&lt;span style=&quot;color: rgb(23 , 43 , 77) ; font-family: , &amp;#34;blinkmacsystemfont&amp;#34; , &amp;#34;segoe ui&amp;#34; , &amp;#34;roboto&amp;#34; , &amp;#34;oxygen&amp;#34; , &amp;#34;ubuntu&amp;#34; , &amp;#34;fira sans&amp;#34; , &amp;#34;droid sans&amp;#34; , &amp;#34;helvetica neue&amp;#34; , sans-serif ; font-size: 14px ; text-align: left ; background-color: rgb(255 , 255 , 255)&quot;&gt;远程车锁&lt;/span&gt;" style="rounded=0;whiteSpace=wrap;html=1;" parent="1" vertex="1">
          <mxGeometry x="870" y="399" width="90" height="40" as="geometry" />
        </mxCell>
        <mxCell id="6elNYPJr9ZTZkZdLtBfF-64" value="&lt;span style=&quot;color: rgb(23 , 43 , 77) ; font-family: , &amp;#34;blinkmacsystemfont&amp;#34; , &amp;#34;segoe ui&amp;#34; , &amp;#34;roboto&amp;#34; , &amp;#34;oxygen&amp;#34; , &amp;#34;ubuntu&amp;#34; , &amp;#34;fira sans&amp;#34; , &amp;#34;droid sans&amp;#34; , &amp;#34;helvetica neue&amp;#34; , sans-serif ; font-size: 14px ; text-align: left ; background-color: rgb(255 , 255 , 255)&quot;&gt;远程寻车&lt;/span&gt;" style="rounded=0;whiteSpace=wrap;html=1;" parent="1" vertex="1">
          <mxGeometry x="980" y="399" width="90" height="40" as="geometry" />
        </mxCell>
        <mxCell id="6elNYPJr9ZTZkZdLtBfF-65" value="&lt;span style=&quot;color: rgb(23 , 43 , 77) ; font-family: , &amp;#34;blinkmacsystemfont&amp;#34; , &amp;#34;segoe ui&amp;#34; , &amp;#34;roboto&amp;#34; , &amp;#34;oxygen&amp;#34; , &amp;#34;ubuntu&amp;#34; , &amp;#34;fira sans&amp;#34; , &amp;#34;droid sans&amp;#34; , &amp;#34;helvetica neue&amp;#34; , sans-serif ; font-size: 14px ; text-align: left ; background-color: rgb(255 , 255 , 255)&quot;&gt;远程空调&lt;/span&gt;" style="rounded=0;whiteSpace=wrap;html=1;" parent="1" vertex="1">
          <mxGeometry x="1090" y="399" width="90" height="40" as="geometry" />
        </mxCell>
        <mxCell id="6elNYPJr9ZTZkZdLtBfF-66" value="&lt;span style=&quot;color: rgb(23 , 43 , 77) ; font-family: , &amp;#34;blinkmacsystemfont&amp;#34; , &amp;#34;segoe ui&amp;#34; , &amp;#34;roboto&amp;#34; , &amp;#34;oxygen&amp;#34; , &amp;#34;ubuntu&amp;#34; , &amp;#34;fira sans&amp;#34; , &amp;#34;droid sans&amp;#34; , &amp;#34;helvetica neue&amp;#34; , sans-serif ; font-size: 14px ; text-align: left ; background-color: rgb(255 , 255 , 255)&quot;&gt;远程车窗控制&lt;/span&gt;" style="rounded=0;whiteSpace=wrap;html=1;" parent="1" vertex="1">
          <mxGeometry x="870" y="460" width="90" height="40" as="geometry" />
        </mxCell>
        <mxCell id="6elNYPJr9ZTZkZdLtBfF-67" value="&lt;div style=&quot;text-align: left&quot;&gt;&lt;font color=&quot;#172b4d&quot;&gt;&lt;span style=&quot;font-size: 14px ; background-color: rgb(255 , 255 , 255)&quot;&gt;空气净化器&lt;/span&gt;&lt;/font&gt;&lt;/div&gt;" style="rounded=0;whiteSpace=wrap;html=1;" parent="1" vertex="1">
          <mxGeometry x="980" y="460" width="90" height="40" as="geometry" />
        </mxCell>
        <mxCell id="6elNYPJr9ZTZkZdLtBfF-68" value="&lt;div style=&quot;text-align: left&quot;&gt;&lt;font color=&quot;#172b4d&quot;&gt;&lt;span style=&quot;font-size: 14px ; background-color: rgb(255 , 255 , 255)&quot;&gt;远程天窗&lt;/span&gt;&lt;/font&gt;&lt;/div&gt;" style="rounded=0;whiteSpace=wrap;html=1;" parent="1" vertex="1">
          <mxGeometry x="1090" y="460" width="90" height="40" as="geometry" />
        </mxCell>
        <mxCell id="6elNYPJr9ZTZkZdLtBfF-69" value="&lt;span style=&quot;color: rgb(23 , 43 , 77) ; font-family: , &amp;#34;blinkmacsystemfont&amp;#34; , &amp;#34;segoe ui&amp;#34; , &amp;#34;roboto&amp;#34; , &amp;#34;oxygen&amp;#34; , &amp;#34;ubuntu&amp;#34; , &amp;#34;fira sans&amp;#34; , &amp;#34;droid sans&amp;#34; , &amp;#34;helvetica neue&amp;#34; , sans-serif ; font-size: 14px ; text-align: left ; background-color: rgb(255 , 255 , 255)&quot;&gt;远程后背门&lt;/span&gt;" style="rounded=0;whiteSpace=wrap;html=1;" parent="1" vertex="1">
          <mxGeometry x="870" y="530" width="90" height="40" as="geometry" />
        </mxCell>
        <mxCell id="6elNYPJr9ZTZkZdLtBfF-70" value="&lt;span style=&quot;color: rgb(23 , 43 , 77) ; font-family: , &amp;#34;blinkmacsystemfont&amp;#34; , &amp;#34;segoe ui&amp;#34; , &amp;#34;roboto&amp;#34; , &amp;#34;oxygen&amp;#34; , &amp;#34;ubuntu&amp;#34; , &amp;#34;fira sans&amp;#34; , &amp;#34;droid sans&amp;#34; , &amp;#34;helvetica neue&amp;#34; , sans-serif ; font-size: 14px ; text-align: left ; background-color: rgb(255 , 255 , 255)&quot;&gt;座椅通风&lt;/span&gt;" style="rounded=0;whiteSpace=wrap;html=1;" parent="1" vertex="1">
          <mxGeometry x="980" y="530" width="90" height="40" as="geometry" />
        </mxCell>
        <mxCell id="6elNYPJr9ZTZkZdLtBfF-71" value="&lt;div style=&quot;text-align: left&quot;&gt;&lt;font color=&quot;#172b4d&quot;&gt;&lt;span style=&quot;font-size: 14px ; background-color: rgb(255 , 255 , 255)&quot;&gt;智能预降温&lt;/span&gt;&lt;/font&gt;&lt;/div&gt;" style="rounded=0;whiteSpace=wrap;html=1;" parent="1" vertex="1">
          <mxGeometry x="1090" y="530" width="90" height="40" as="geometry" />
        </mxCell>
        <mxCell id="6elNYPJr9ZTZkZdLtBfF-72" value="&lt;span style=&quot;color: rgb(23 , 43 , 77) ; font-family: , &amp;#34;blinkmacsystemfont&amp;#34; , &amp;#34;segoe ui&amp;#34; , &amp;#34;roboto&amp;#34; , &amp;#34;oxygen&amp;#34; , &amp;#34;ubuntu&amp;#34; , &amp;#34;fira sans&amp;#34; , &amp;#34;droid sans&amp;#34; , &amp;#34;helvetica neue&amp;#34; , sans-serif ; font-size: 14px ; text-align: left ; background-color: rgb(255 , 255 , 255)&quot;&gt;预约充电/立即充电&lt;/span&gt;" style="rounded=0;whiteSpace=wrap;html=1;" parent="1" vertex="1">
          <mxGeometry x="870" y="600" width="90" height="40" as="geometry" />
        </mxCell>
        <mxCell id="6elNYPJr9ZTZkZdLtBfF-73" value="&lt;div style=&quot;text-align: left&quot;&gt;&lt;font color=&quot;#172b4d&quot;&gt;&lt;span style=&quot;font-size: 14px ; background-color: rgb(255 , 255 , 255)&quot;&gt;远程引擎&lt;/span&gt;&lt;/font&gt;&lt;/div&gt;&lt;div style=&quot;text-align: left&quot;&gt;&lt;font color=&quot;#172b4d&quot;&gt;&lt;span style=&quot;font-size: 14px ; background-color: rgb(255 , 255 , 255)&quot;&gt;开启/关闭&lt;/span&gt;&lt;/font&gt;&lt;/div&gt;" style="rounded=0;whiteSpace=wrap;html=1;" parent="1" vertex="1">
          <mxGeometry x="980" y="600" width="90" height="40" as="geometry" />
        </mxCell>
        <mxCell id="6elNYPJr9ZTZkZdLtBfF-74" value="&lt;div style=&quot;text-align: left&quot;&gt;&lt;font color=&quot;#172b4d&quot;&gt;&lt;span style=&quot;font-size: 14px ; background-color: rgb(255 , 255 , 255)&quot;&gt;座舱清洁&lt;/span&gt;&lt;/font&gt;&lt;/div&gt;" style="rounded=0;whiteSpace=wrap;html=1;" parent="1" vertex="1">
          <mxGeometry x="1090" y="600" width="90" height="40" as="geometry" />
        </mxCell>
        <mxCell id="6elNYPJr9ZTZkZdLtBfF-75" value="&lt;div style=&quot;text-align: left&quot;&gt;&lt;font color=&quot;#172b4d&quot;&gt;&lt;span style=&quot;font-size: 14px ; background-color: rgb(255 , 255 , 255)&quot;&gt;远控记录查看&lt;/span&gt;&lt;/font&gt;&lt;/div&gt;" style="rounded=0;whiteSpace=wrap;html=1;" parent="1" vertex="1">
          <mxGeometry x="870" y="660" width="90" height="40" as="geometry" />
        </mxCell>
        <mxCell id="6elNYPJr9ZTZkZdLtBfF-76" value="&lt;div style=&quot;text-align: left&quot;&gt;&lt;font color=&quot;#172b4d&quot;&gt;&lt;span style=&quot;font-size: 14px ; background-color: rgb(255 , 255 , 255)&quot;&gt;技能口袋&lt;/span&gt;&lt;/font&gt;&lt;/div&gt;" style="rounded=0;whiteSpace=wrap;html=1;" parent="1" vertex="1">
          <mxGeometry x="980" y="660" width="90" height="40" as="geometry" />
        </mxCell>
        <mxCell id="6elNYPJr9ZTZkZdLtBfF-77" value="&lt;div style=&quot;text-align: left&quot;&gt;&lt;font color=&quot;#172b4d&quot;&gt;&lt;span style=&quot;font-size: 14px ; background-color: rgb(255 , 255 , 255)&quot;&gt;充电地图&lt;/span&gt;&lt;/font&gt;&lt;/div&gt;" style="rounded=0;whiteSpace=wrap;html=1;" parent="1" vertex="1">
          <mxGeometry x="1090" y="660" width="90" height="40" as="geometry" />
        </mxCell>
        <mxCell id="6elNYPJr9ZTZkZdLtBfF-78" value="&lt;div style=&quot;text-align: left&quot;&gt;&lt;font color=&quot;#172b4d&quot;&gt;&lt;span style=&quot;font-size: 14px ; background-color: rgb(255 , 255 , 255)&quot;&gt;车辆共享&lt;/span&gt;&lt;/font&gt;&lt;/div&gt;" style="rounded=0;whiteSpace=wrap;html=1;fillColor=#fff2cc;strokeColor=#d6b656;" parent="1" vertex="1">
          <mxGeometry x="1195" y="399" width="90" height="40" as="geometry" />
        </mxCell>
        <mxCell id="6elNYPJr9ZTZkZdLtBfF-79" value="&lt;div style=&quot;text-align: left&quot;&gt;&lt;font color=&quot;#172b4d&quot;&gt;&lt;span style=&quot;font-size: 14px ; background-color: rgb(255 , 255 , 255)&quot;&gt;虚拟远控&lt;/span&gt;&lt;/font&gt;&lt;/div&gt;" style="rounded=0;whiteSpace=wrap;html=1;fillColor=#fff2cc;strokeColor=#d6b656;" parent="1" vertex="1">
          <mxGeometry x="1195" y="460" width="90" height="40" as="geometry" />
        </mxCell>
        <mxCell id="6elNYPJr9ZTZkZdLtBfF-86" value="远控类" style="text;html=1;strokeColor=none;fillColor=none;align=center;verticalAlign=middle;whiteSpace=wrap;rounded=0;dashed=1;" parent="1" vertex="1">
          <mxGeometry x="810" y="390" width="60" height="30" as="geometry" />
        </mxCell>
        <mxCell id="6elNYPJr9ZTZkZdLtBfF-87" value="&lt;div style=&quot;text-align: left&quot;&gt;&lt;font color=&quot;#172b4d&quot;&gt;&lt;span style=&quot;font-size: 14px ; background-color: rgb(255 , 255 , 255)&quot;&gt;车辆位置&lt;/span&gt;&lt;/font&gt;&lt;/div&gt;" style="rounded=0;whiteSpace=wrap;html=1;" parent="1" vertex="1">
          <mxGeometry x="870" y="762" width="90" height="40" as="geometry" />
        </mxCell>
        <mxCell id="6elNYPJr9ZTZkZdLtBfF-88" value="&lt;div style=&quot;text-align: left&quot;&gt;&lt;font color=&quot;#172b4d&quot;&gt;&lt;span style=&quot;font-size: 14px ; background-color: rgb(255 , 255 , 255)&quot;&gt;电子围栏&lt;/span&gt;&lt;/font&gt;&lt;/div&gt;" style="rounded=0;whiteSpace=wrap;html=1;" parent="1" vertex="1">
          <mxGeometry x="870" y="822" width="90" height="40" as="geometry" />
        </mxCell>
        <mxCell id="6elNYPJr9ZTZkZdLtBfF-89" value="&lt;div style=&quot;text-align: left&quot;&gt;&lt;font color=&quot;#172b4d&quot;&gt;&lt;span style=&quot;font-size: 14px ; background-color: rgb(255 , 255 , 255)&quot;&gt;车门异常开启&lt;/span&gt;&lt;/font&gt;&lt;/div&gt;" style="rounded=0;whiteSpace=wrap;html=1;" parent="1" vertex="1">
          <mxGeometry x="990" y="762" width="90" height="40" as="geometry" />
        </mxCell>
        <mxCell id="6elNYPJr9ZTZkZdLtBfF-90" value="&lt;div style=&quot;text-align: left&quot;&gt;&lt;font color=&quot;#172b4d&quot;&gt;&lt;span style=&quot;font-size: 14px ; background-color: rgb(255 , 255 , 255)&quot;&gt;车辆异动&lt;/span&gt;&lt;/font&gt;&lt;/div&gt;" style="rounded=0;whiteSpace=wrap;html=1;" parent="1" vertex="1">
          <mxGeometry x="1200" y="762" width="90" height="40" as="geometry" />
        </mxCell>
        <mxCell id="6elNYPJr9ZTZkZdLtBfF-91" value="&lt;div style=&quot;text-align: left&quot;&gt;&lt;font color=&quot;#172b4d&quot;&gt;&lt;span style=&quot;font-size: 14px ; background-color: rgb(255 , 255 , 255)&quot;&gt;车窗未关&lt;/span&gt;&lt;/font&gt;&lt;/div&gt;" style="rounded=0;whiteSpace=wrap;html=1;" parent="1" vertex="1">
          <mxGeometry x="1096.87" y="762" width="90" height="40" as="geometry" />
        </mxCell>
        <mxCell id="6elNYPJr9ZTZkZdLtBfF-92" value="&lt;div style=&quot;text-align: left&quot;&gt;&lt;font color=&quot;#172b4d&quot;&gt;&lt;span style=&quot;font-size: 14px ; background-color: rgb(255 , 255 , 255)&quot;&gt;蓄电池告警&lt;/span&gt;&lt;/font&gt;&lt;/div&gt;" style="rounded=0;whiteSpace=wrap;html=1;" parent="1" vertex="1">
          <mxGeometry x="990" y="822" width="90" height="40" as="geometry" />
        </mxCell>
        <mxCell id="6elNYPJr9ZTZkZdLtBfF-93" value="&lt;div style=&quot;text-align: left&quot;&gt;&lt;font color=&quot;#172b4d&quot;&gt;&lt;span style=&quot;font-size: 14px ; background-color: rgb(255 , 255 , 255)&quot;&gt;电池热失控告警&lt;/span&gt;&lt;/font&gt;&lt;/div&gt;" style="rounded=0;whiteSpace=wrap;html=1;" parent="1" vertex="1">
          <mxGeometry x="1096.87" y="822" width="90" height="40" as="geometry" />
        </mxCell>
        <mxCell id="6elNYPJr9ZTZkZdLtBfF-95" value="车况类" style="text;html=1;strokeColor=none;fillColor=none;align=center;verticalAlign=middle;whiteSpace=wrap;rounded=0;dashed=1;" parent="1" vertex="1">
          <mxGeometry x="815" y="742" width="60" height="30" as="geometry" />
        </mxCell>
        <mxCell id="6elNYPJr9ZTZkZdLtBfF-97" value="" style="shape=link;html=1;rounded=0;endArrow=oval;endFill=0;" parent="1" edge="1">
          <mxGeometry width="100" relative="1" as="geometry">
            <mxPoint x="-520" y="940" as="sourcePoint" />
            <mxPoint x="3900" y="930" as="targetPoint" />
          </mxGeometry>
        </mxCell>
        <mxCell id="6elNYPJr9ZTZkZdLtBfF-99" value="服务层" style="rounded=0;whiteSpace=wrap;html=1;fillColor=#f8cecc;strokeColor=#b85450;" parent="1" vertex="1">
          <mxGeometry x="-520" y="1430" width="90" height="40" as="geometry" />
        </mxCell>
        <mxCell id="6elNYPJr9ZTZkZdLtBfF-100" value="" style="shape=link;html=1;rounded=0;endArrow=oval;endFill=0;" parent="1" edge="1">
          <mxGeometry width="100" relative="1" as="geometry">
            <mxPoint x="-510.5" y="3390" as="sourcePoint" />
            <mxPoint x="3051.5" y="3380" as="targetPoint" />
          </mxGeometry>
        </mxCell>
        <mxCell id="6elNYPJr9ZTZkZdLtBfF-103" value="业务层" style="rounded=0;whiteSpace=wrap;html=1;fillColor=#f8cecc;strokeColor=#b85450;" parent="1" vertex="1">
          <mxGeometry x="-530" y="380" width="90" height="40" as="geometry" />
        </mxCell>
        <mxCell id="6elNYPJr9ZTZkZdLtBfF-106" value="基础设施" style="rounded=0;whiteSpace=wrap;html=1;fillColor=#f8cecc;strokeColor=#b85450;" parent="1" vertex="1">
          <mxGeometry x="-520" y="2810" width="90" height="40" as="geometry" />
        </mxCell>
        <mxCell id="6elNYPJr9ZTZkZdLtBfF-107" value="" style="shape=link;html=1;rounded=0;endArrow=oval;endFill=0;" parent="1" edge="1">
          <mxGeometry width="100" relative="1" as="geometry">
            <mxPoint x="-520" y="290" as="sourcePoint" />
            <mxPoint x="3880" y="290" as="targetPoint" />
          </mxGeometry>
        </mxCell>
        <mxCell id="6elNYPJr9ZTZkZdLtBfF-110" value="&lt;div style=&quot;text-align: left&quot;&gt;&lt;font color=&quot;#172b4d&quot;&gt;&lt;span style=&quot;font-size: 14px ; background-color: rgb(255 , 255 , 255)&quot;&gt;线上客服&lt;/span&gt;&lt;/font&gt;&lt;/div&gt;" style="rounded=0;whiteSpace=wrap;html=1;" parent="1" vertex="1">
          <mxGeometry x="1936.55" y="382.5" width="90" height="40" as="geometry" />
        </mxCell>
        <mxCell id="6elNYPJr9ZTZkZdLtBfF-111" value="&lt;div style=&quot;text-align: left&quot;&gt;&lt;font color=&quot;#172b4d&quot;&gt;&lt;span style=&quot;font-size: 14px ; background-color: rgb(255 , 255 , 255)&quot;&gt;预约试驾&lt;/span&gt;&lt;/font&gt;&lt;/div&gt;" style="rounded=0;whiteSpace=wrap;html=1;" parent="1" vertex="1">
          <mxGeometry x="2053.43" y="382.5" width="90" height="40" as="geometry" />
        </mxCell>
        <mxCell id="6elNYPJr9ZTZkZdLtBfF-112" value="&lt;div style=&quot;text-align: left&quot;&gt;&lt;font color=&quot;#172b4d&quot;&gt;&lt;span style=&quot;font-size: 14px ; background-color: rgb(255 , 255 , 255)&quot;&gt;邀约试驾&lt;/span&gt;&lt;/font&gt;&lt;/div&gt;" style="rounded=0;whiteSpace=wrap;html=1;" parent="1" vertex="1">
          <mxGeometry x="2163.43" y="382.5" width="90" height="40" as="geometry" />
        </mxCell>
        <mxCell id="6elNYPJr9ZTZkZdLtBfF-113" value="&lt;div style=&quot;text-align: left&quot;&gt;&lt;font color=&quot;#172b4d&quot;&gt;&lt;span style=&quot;font-size: 14px ; background-color: rgb(255 , 255 , 255)&quot;&gt;道路救援&lt;/span&gt;&lt;/font&gt;&lt;/div&gt;" style="rounded=0;whiteSpace=wrap;html=1;" parent="1" vertex="1">
          <mxGeometry x="1936.55" y="436.5" width="90" height="40" as="geometry" />
        </mxCell>
        <mxCell id="6elNYPJr9ZTZkZdLtBfF-114" value="&lt;div style=&quot;text-align: left&quot;&gt;&lt;font color=&quot;#172b4d&quot;&gt;&lt;span style=&quot;font-size: 14px ; background-color: rgb(255 , 255 , 255)&quot;&gt;上门取送车&lt;/span&gt;&lt;/font&gt;&lt;/div&gt;" style="rounded=0;whiteSpace=wrap;html=1;" parent="1" vertex="1">
          <mxGeometry x="2053.43" y="436.5" width="90" height="40" as="geometry" />
        </mxCell>
        <mxCell id="6elNYPJr9ZTZkZdLtBfF-115" value="&lt;div style=&quot;text-align: left&quot;&gt;&lt;font color=&quot;#172b4d&quot;&gt;&lt;span style=&quot;font-size: 14px ; background-color: rgb(255 , 255 , 255)&quot;&gt;金融计算器&lt;/span&gt;&lt;/font&gt;&lt;/div&gt;" style="rounded=0;whiteSpace=wrap;html=1;" parent="1" vertex="1">
          <mxGeometry x="2163.43" y="436.5" width="90" height="40" as="geometry" />
        </mxCell>
        <mxCell id="6elNYPJr9ZTZkZdLtBfF-117" value="&lt;div style=&quot;text-align: left&quot;&gt;&lt;font color=&quot;#172b4d&quot;&gt;&lt;span style=&quot;font-size: 14px ; background-color: rgb(255 , 255 , 255)&quot;&gt;整车商城&lt;/span&gt;&lt;/font&gt;&lt;/div&gt;" style="rounded=0;whiteSpace=wrap;html=1;" parent="1" vertex="1">
          <mxGeometry x="2380" y="384.5" width="90" height="40" as="geometry" />
        </mxCell>
        <mxCell id="6elNYPJr9ZTZkZdLtBfF-122" value="&lt;div style=&quot;text-align: left&quot;&gt;&lt;font color=&quot;#172b4d&quot;&gt;&lt;span style=&quot;font-size: 14px ; background-color: rgb(255 , 255 , 255)&quot;&gt;多品牌多车系选择&lt;/span&gt;&lt;/font&gt;&lt;/div&gt;" style="rounded=0;whiteSpace=wrap;html=1;" parent="1" vertex="1">
          <mxGeometry x="2500" y="384.5" width="90" height="40" as="geometry" />
        </mxCell>
        <mxCell id="6elNYPJr9ZTZkZdLtBfF-123" value="&lt;div style=&quot;text-align: left&quot;&gt;&lt;font color=&quot;#172b4d&quot;&gt;&lt;span style=&quot;font-size: 14px ; background-color: rgb(255 , 255 , 255)&quot;&gt;门点查询&lt;/span&gt;&lt;/font&gt;&lt;/div&gt;" style="rounded=0;whiteSpace=wrap;html=1;" parent="1" vertex="1">
          <mxGeometry x="2610" y="382.5" width="90" height="40" as="geometry" />
        </mxCell>
        <mxCell id="6elNYPJr9ZTZkZdLtBfF-124" value="&lt;div style=&quot;text-align: left&quot;&gt;&lt;font color=&quot;#172b4d&quot;&gt;&lt;span style=&quot;font-size: 14px ; background-color: rgb(255 , 255 , 255)&quot;&gt;整车订购&lt;/span&gt;&lt;/font&gt;&lt;/div&gt;" style="rounded=0;whiteSpace=wrap;html=1;" parent="1" vertex="1">
          <mxGeometry x="2380" y="439.5" width="90" height="40" as="geometry" />
        </mxCell>
        <mxCell id="6elNYPJr9ZTZkZdLtBfF-125" value="&lt;div style=&quot;text-align: left&quot;&gt;&lt;font color=&quot;#172b4d&quot;&gt;&lt;span style=&quot;font-size: 14px ; background-color: rgb(255 , 255 , 255)&quot;&gt;积分商城&lt;/span&gt;&lt;/font&gt;&lt;/div&gt;" style="rounded=0;whiteSpace=wrap;html=1;" parent="1" vertex="1">
          <mxGeometry x="2501" y="439.5" width="90" height="40" as="geometry" />
        </mxCell>
        <mxCell id="6elNYPJr9ZTZkZdLtBfF-126" value="&lt;div style=&quot;text-align: left&quot;&gt;&lt;font color=&quot;#172b4d&quot;&gt;&lt;span style=&quot;font-size: 14px ; background-color: rgb(255 , 255 , 255)&quot;&gt;精品商城&lt;/span&gt;&lt;/font&gt;&lt;/div&gt;" style="rounded=0;whiteSpace=wrap;html=1;" parent="1" vertex="1">
          <mxGeometry x="2610" y="439.5" width="90" height="40" as="geometry" />
        </mxCell>
        <mxCell id="6elNYPJr9ZTZkZdLtBfF-198" style="edgeStyle=orthogonalEdgeStyle;rounded=0;orthogonalLoop=1;jettySize=auto;html=1;endArrow=oval;endFill=0;" parent="1" source="6elNYPJr9ZTZkZdLtBfF-128" target="6elNYPJr9ZTZkZdLtBfF-171" edge="1">
          <mxGeometry relative="1" as="geometry" />
        </mxCell>
        <mxCell id="6elNYPJr9ZTZkZdLtBfF-128" value="其它" style="rounded=0;whiteSpace=wrap;html=1;" parent="1" vertex="1">
          <mxGeometry x="3650" y="300" width="90" height="40" as="geometry" />
        </mxCell>
        <mxCell id="6elNYPJr9ZTZkZdLtBfF-130" value="&lt;div style=&quot;text-align: left&quot;&gt;&lt;font color=&quot;#172b4d&quot;&gt;&lt;span style=&quot;font-size: 14px ; background-color: rgb(255 , 255 , 255)&quot;&gt;个人信息管理&lt;/span&gt;&lt;/font&gt;&lt;/div&gt;" style="rounded=0;whiteSpace=wrap;html=1;" parent="1" vertex="1">
          <mxGeometry x="2864" y="383" width="90" height="40" as="geometry" />
        </mxCell>
        <mxCell id="6elNYPJr9ZTZkZdLtBfF-131" value="&lt;div style=&quot;text-align: left&quot;&gt;&lt;font color=&quot;#172b4d&quot;&gt;&lt;span style=&quot;font-size: 14px ; background-color: rgb(255 , 255 , 255)&quot;&gt;用户空间&lt;/span&gt;&lt;/font&gt;&lt;/div&gt;" style="rounded=0;whiteSpace=wrap;html=1;" parent="1" vertex="1">
          <mxGeometry x="2983" y="384.5" width="90" height="40" as="geometry" />
        </mxCell>
        <mxCell id="6elNYPJr9ZTZkZdLtBfF-132" value="&lt;div style=&quot;text-align: left&quot;&gt;&lt;font color=&quot;#172b4d&quot;&gt;&lt;span style=&quot;font-size: 14px ; background-color: rgb(255 , 255 , 255)&quot;&gt;我的粉丝&lt;/span&gt;&lt;/font&gt;&lt;/div&gt;" style="rounded=0;whiteSpace=wrap;html=1;" parent="1" vertex="1">
          <mxGeometry x="3098" y="384.5" width="90" height="40" as="geometry" />
        </mxCell>
        <mxCell id="6elNYPJr9ZTZkZdLtBfF-133" value="&lt;div style=&quot;text-align: left&quot;&gt;&lt;font color=&quot;#172b4d&quot;&gt;&lt;span style=&quot;font-size: 14px ; background-color: rgb(255 , 255 , 255)&quot;&gt;我的关注&lt;/span&gt;&lt;/font&gt;&lt;/div&gt;" style="rounded=0;whiteSpace=wrap;html=1;" parent="1" vertex="1">
          <mxGeometry x="3218" y="384.5" width="90" height="40" as="geometry" />
        </mxCell>
        <mxCell id="6elNYPJr9ZTZkZdLtBfF-137" value="&lt;div style=&quot;text-align: left&quot;&gt;&lt;font color=&quot;#172b4d&quot;&gt;&lt;span style=&quot;font-size: 14px ; background-color: rgb(255 , 255 , 255)&quot;&gt;我的获赞&lt;/span&gt;&lt;/font&gt;&lt;/div&gt;" style="rounded=0;whiteSpace=wrap;html=1;" parent="1" vertex="1">
          <mxGeometry x="2864" y="438" width="90" height="40" as="geometry" />
        </mxCell>
        <mxCell id="6elNYPJr9ZTZkZdLtBfF-138" value="&lt;div style=&quot;text-align: left&quot;&gt;&lt;font color=&quot;#172b4d&quot;&gt;&lt;span style=&quot;font-size: 14px ; background-color: rgb(255 , 255 , 255)&quot;&gt;每日签到&lt;/span&gt;&lt;/font&gt;&lt;/div&gt;" style="rounded=0;whiteSpace=wrap;html=1;" parent="1" vertex="1">
          <mxGeometry x="2983" y="444" width="90" height="40" as="geometry" />
        </mxCell>
        <mxCell id="6elNYPJr9ZTZkZdLtBfF-139" value="&lt;div style=&quot;text-align: left&quot;&gt;&lt;font color=&quot;#172b4d&quot;&gt;&lt;span style=&quot;font-size: 14px ; background-color: rgb(255 , 255 , 255)&quot;&gt;积分任务&lt;/span&gt;&lt;/font&gt;&lt;/div&gt;" style="rounded=0;whiteSpace=wrap;html=1;" parent="1" vertex="1">
          <mxGeometry x="3098" y="444" width="90" height="40" as="geometry" />
        </mxCell>
        <mxCell id="6elNYPJr9ZTZkZdLtBfF-140" value="&lt;div style=&quot;text-align: left&quot;&gt;&lt;font color=&quot;#172b4d&quot;&gt;&lt;span style=&quot;font-size: 14px ; background-color: rgb(255 , 255 , 255)&quot;&gt;积分记录&lt;/span&gt;&lt;/font&gt;&lt;/div&gt;" style="rounded=0;whiteSpace=wrap;html=1;" parent="1" vertex="1">
          <mxGeometry x="3218" y="444" width="90" height="40" as="geometry" />
        </mxCell>
        <mxCell id="6elNYPJr9ZTZkZdLtBfF-141" value="&lt;div style=&quot;text-align: left&quot;&gt;&lt;font color=&quot;#172b4d&quot;&gt;&lt;span style=&quot;font-size: 14px ; background-color: rgb(255 , 255 , 255)&quot;&gt;我的动态&lt;/span&gt;&lt;/font&gt;&lt;/div&gt;" style="rounded=0;whiteSpace=wrap;html=1;" parent="1" vertex="1">
          <mxGeometry x="2864" y="501.5" width="90" height="40" as="geometry" />
        </mxCell>
        <mxCell id="6elNYPJr9ZTZkZdLtBfF-142" value="&lt;div style=&quot;text-align: left&quot;&gt;&lt;font color=&quot;#172b4d&quot;&gt;&lt;span style=&quot;font-size: 14px ; background-color: rgb(255 , 255 , 255)&quot;&gt;我的活动&lt;/span&gt;&lt;/font&gt;&lt;/div&gt;" style="rounded=0;whiteSpace=wrap;html=1;" parent="1" vertex="1">
          <mxGeometry x="2983" y="503" width="90" height="40" as="geometry" />
        </mxCell>
        <mxCell id="6elNYPJr9ZTZkZdLtBfF-143" value="&lt;div style=&quot;text-align: left&quot;&gt;&lt;font color=&quot;#172b4d&quot;&gt;&lt;span style=&quot;font-size: 14px ; background-color: rgb(255 , 255 , 255)&quot;&gt;我的收藏&lt;/span&gt;&lt;/font&gt;&lt;/div&gt;" style="rounded=0;whiteSpace=wrap;html=1;" parent="1" vertex="1">
          <mxGeometry x="3098" y="503" width="90" height="40" as="geometry" />
        </mxCell>
        <mxCell id="6elNYPJr9ZTZkZdLtBfF-144" value="&lt;div style=&quot;text-align: left&quot;&gt;&lt;font color=&quot;#172b4d&quot;&gt;&lt;span style=&quot;font-size: 14px ; background-color: rgb(255 , 255 , 255)&quot;&gt;我的点赞&lt;/span&gt;&lt;/font&gt;&lt;/div&gt;" style="rounded=0;whiteSpace=wrap;html=1;" parent="1" vertex="1">
          <mxGeometry x="3218" y="503" width="90" height="40" as="geometry" />
        </mxCell>
        <mxCell id="6elNYPJr9ZTZkZdLtBfF-145" value="&lt;div style=&quot;text-align: left&quot;&gt;&lt;font color=&quot;#172b4d&quot;&gt;&lt;span style=&quot;font-size: 14px ; background-color: rgb(255 , 255 , 255)&quot;&gt;消息中心&lt;/span&gt;&lt;/font&gt;&lt;/div&gt;" style="rounded=0;whiteSpace=wrap;html=1;" parent="1" vertex="1">
          <mxGeometry x="2864" y="563.5" width="90" height="40" as="geometry" />
        </mxCell>
        <mxCell id="6elNYPJr9ZTZkZdLtBfF-146" value="&lt;div style=&quot;text-align: left&quot;&gt;&lt;font color=&quot;#172b4d&quot;&gt;&lt;span style=&quot;font-size: 14px ; background-color: rgb(255 , 255 , 255)&quot;&gt;公告信息&lt;/span&gt;&lt;/font&gt;&lt;/div&gt;" style="rounded=0;whiteSpace=wrap;html=1;" parent="1" vertex="1">
          <mxGeometry x="2983" y="565" width="90" height="40" as="geometry" />
        </mxCell>
        <mxCell id="6elNYPJr9ZTZkZdLtBfF-147" value="&lt;div style=&quot;text-align: left&quot;&gt;&lt;font color=&quot;#172b4d&quot;&gt;&lt;span style=&quot;font-size: 14px ; background-color: rgb(255 , 255 , 255)&quot;&gt;服务信息&lt;/span&gt;&lt;/font&gt;&lt;/div&gt;" style="rounded=0;whiteSpace=wrap;html=1;" parent="1" vertex="1">
          <mxGeometry x="3098" y="565" width="90" height="40" as="geometry" />
        </mxCell>
        <mxCell id="6elNYPJr9ZTZkZdLtBfF-148" value="&lt;div style=&quot;text-align: left&quot;&gt;&lt;font color=&quot;#172b4d&quot;&gt;&lt;span style=&quot;font-size: 14px ; background-color: rgb(255 , 255 , 255)&quot;&gt;活动信息&lt;/span&gt;&lt;/font&gt;&lt;/div&gt;" style="rounded=0;whiteSpace=wrap;html=1;" parent="1" vertex="1">
          <mxGeometry x="3218" y="565" width="90" height="40" as="geometry" />
        </mxCell>
        <mxCell id="6elNYPJr9ZTZkZdLtBfF-149" value="&lt;font color=&quot;#172b4d&quot;&gt;&lt;span style=&quot;font-size: 14px ; background-color: rgb(255 , 255 , 255)&quot;&gt;社区提醒&lt;/span&gt;&lt;/font&gt;" style="rounded=0;whiteSpace=wrap;html=1;" parent="1" vertex="1">
          <mxGeometry x="2864" y="622.5" width="90" height="40" as="geometry" />
        </mxCell>
        <mxCell id="6elNYPJr9ZTZkZdLtBfF-150" value="&lt;font color=&quot;#172b4d&quot;&gt;&lt;span style=&quot;font-size: 14px ; background-color: rgb(255 , 255 , 255)&quot;&gt;服务订单&lt;/span&gt;&lt;/font&gt;" style="rounded=0;whiteSpace=wrap;html=1;" parent="1" vertex="1">
          <mxGeometry x="2983" y="624" width="90" height="40" as="geometry" />
        </mxCell>
        <mxCell id="6elNYPJr9ZTZkZdLtBfF-151" value="&lt;font color=&quot;#172b4d&quot;&gt;&lt;span style=&quot;font-size: 14px ; background-color: rgb(255 , 255 , 255)&quot;&gt;商品订单&lt;/span&gt;&lt;/font&gt;" style="rounded=0;whiteSpace=wrap;html=1;" parent="1" vertex="1">
          <mxGeometry x="3098" y="624" width="90" height="40" as="geometry" />
        </mxCell>
        <mxCell id="6elNYPJr9ZTZkZdLtBfF-152" value="&lt;font color=&quot;#172b4d&quot;&gt;&lt;span style=&quot;font-size: 14px ; background-color: rgb(255 , 255 , 255)&quot;&gt;整车订单&lt;/span&gt;&lt;/font&gt;" style="rounded=0;whiteSpace=wrap;html=1;" parent="1" vertex="1">
          <mxGeometry x="3220" y="624" width="90" height="40" as="geometry" />
        </mxCell>
        <mxCell id="6elNYPJr9ZTZkZdLtBfF-154" value="&lt;font color=&quot;#172b4d&quot;&gt;&lt;span style=&quot;font-size: 14px ; background-color: rgb(255 , 255 , 255)&quot;&gt;我的车辆&lt;/span&gt;&lt;/font&gt;" style="rounded=0;whiteSpace=wrap;html=1;" parent="1" vertex="1">
          <mxGeometry x="2866" y="684.5" width="90" height="40" as="geometry" />
        </mxCell>
        <mxCell id="6elNYPJr9ZTZkZdLtBfF-155" value="&lt;font color=&quot;#172b4d&quot;&gt;&lt;span style=&quot;font-size: 14px ; background-color: rgb(255 , 255 , 255)&quot;&gt;我的邀约&lt;/span&gt;&lt;/font&gt;" style="rounded=0;whiteSpace=wrap;html=1;" parent="1" vertex="1">
          <mxGeometry x="2983" y="684" width="90" height="40" as="geometry" />
        </mxCell>
        <mxCell id="6elNYPJr9ZTZkZdLtBfF-156" value="&lt;font color=&quot;#172b4d&quot;&gt;&lt;span style=&quot;font-size: 14px ; background-color: rgb(255 , 255 , 255)&quot;&gt;我的邀约&lt;/span&gt;&lt;/font&gt;" style="rounded=0;whiteSpace=wrap;html=1;" parent="1" vertex="1">
          <mxGeometry x="3098" y="686" width="90" height="40" as="geometry" />
        </mxCell>
        <mxCell id="6elNYPJr9ZTZkZdLtBfF-157" value="&lt;font color=&quot;#172b4d&quot;&gt;&lt;span style=&quot;font-size: 14px ; background-color: rgb(255 , 255 , 255)&quot;&gt;系统设置&lt;/span&gt;&lt;/font&gt;" style="rounded=0;whiteSpace=wrap;html=1;" parent="1" vertex="1">
          <mxGeometry x="3220" y="684" width="90" height="40" as="geometry" />
        </mxCell>
        <mxCell id="6elNYPJr9ZTZkZdLtBfF-158" value="&lt;font color=&quot;#172b4d&quot;&gt;&lt;span style=&quot;font-size: 14px ; background-color: rgb(255 , 255 , 255)&quot;&gt;关联账号设置&lt;/span&gt;&lt;/font&gt;" style="rounded=0;whiteSpace=wrap;html=1;" parent="1" vertex="1">
          <mxGeometry x="3340" y="686" width="90" height="40" as="geometry" />
        </mxCell>
        <mxCell id="6elNYPJr9ZTZkZdLtBfF-159" value="&lt;font color=&quot;#172b4d&quot;&gt;&lt;span style=&quot;font-size: 14px ; background-color: rgb(255 , 255 , 255)&quot;&gt;绑定邮箱&lt;/span&gt;&lt;/font&gt;" style="rounded=0;whiteSpace=wrap;html=1;" parent="1" vertex="1">
          <mxGeometry x="3340" y="624" width="90" height="40" as="geometry" />
        </mxCell>
        <mxCell id="6elNYPJr9ZTZkZdLtBfF-161" value="&lt;font color=&quot;#172b4d&quot;&gt;&lt;span style=&quot;font-size: 14px ; background-color: rgb(255 , 255 , 255)&quot;&gt;修改密码&lt;/span&gt;&lt;/font&gt;" style="rounded=0;whiteSpace=wrap;html=1;" parent="1" vertex="1">
          <mxGeometry x="2864" y="742" width="90" height="40" as="geometry" />
        </mxCell>
        <mxCell id="6elNYPJr9ZTZkZdLtBfF-162" value="&lt;font color=&quot;#172b4d&quot;&gt;&lt;span style=&quot;font-size: 14px ; background-color: rgb(255 , 255 , 255)&quot;&gt;账户注销&lt;/span&gt;&lt;/font&gt;" style="rounded=0;whiteSpace=wrap;html=1;" parent="1" vertex="1">
          <mxGeometry x="3340" y="565" width="90" height="40" as="geometry" />
        </mxCell>
        <mxCell id="6elNYPJr9ZTZkZdLtBfF-163" value="&lt;font color=&quot;#172b4d&quot;&gt;&lt;span style=&quot;font-size: 14px ; background-color: rgb(255 , 255 , 255)&quot;&gt;远程下线车机账户&lt;/span&gt;&lt;/font&gt;" style="rounded=0;whiteSpace=wrap;html=1;" parent="1" vertex="1">
          <mxGeometry x="3340" y="385" width="90" height="40" as="geometry" />
        </mxCell>
        <mxCell id="6elNYPJr9ZTZkZdLtBfF-164" value="&lt;font color=&quot;#172b4d&quot;&gt;&lt;span style=&quot;font-size: 14px ; background-color: rgb(255 , 255 , 255)&quot;&gt;安防密码&lt;/span&gt;&lt;/font&gt;" style="rounded=0;whiteSpace=wrap;html=1;" parent="1" vertex="1">
          <mxGeometry x="3340" y="444" width="90" height="40" as="geometry" />
        </mxCell>
        <mxCell id="6elNYPJr9ZTZkZdLtBfF-165" value="&lt;font color=&quot;#172b4d&quot;&gt;&lt;span style=&quot;font-size: 14px ; background-color: rgb(255 , 255 , 255)&quot;&gt;版本更新&lt;/span&gt;&lt;/font&gt;" style="rounded=0;whiteSpace=wrap;html=1;" parent="1" vertex="1">
          <mxGeometry x="3340" y="503" width="90" height="40" as="geometry" />
        </mxCell>
        <UserObject label="&lt;font color=&quot;#172b4d&quot;&gt;&lt;span style=&quot;font-size: 14px ; background-color: rgb(255 , 255 , 255)&quot;&gt;手机注册登录&lt;/span&gt;&lt;/font&gt;" link="https://wiki.gwmdevops.com/x/1Ks0AQ" linkTarget="验证码登录文档" id="6elNYPJr9ZTZkZdLtBfF-166">
          <mxCell style="rounded=0;whiteSpace=wrap;html=1;" parent="1" vertex="1">
            <mxGeometry x="-73.12" y="398" width="90" height="40" as="geometry" />
          </mxCell>
        </UserObject>
        <mxCell id="6elNYPJr9ZTZkZdLtBfF-167" value="&lt;font color=&quot;#172b4d&quot;&gt;&lt;span style=&quot;font-size: 14px ; background-color: rgb(255 , 255 , 255)&quot;&gt;邮箱登录&lt;/span&gt;&lt;/font&gt;" style="rounded=0;whiteSpace=wrap;html=1;" parent="1" vertex="1">
          <mxGeometry x="-193.12" y="455" width="90" height="40" as="geometry" />
        </mxCell>
        <object label="&lt;font color=&quot;#172b4d&quot;&gt;&lt;span style=&quot;font-size: 14px ; background-color: rgb(255 , 255 , 255)&quot;&gt;用户ID登录&lt;/span&gt;&lt;/font&gt;" biz="用户登录" id="6elNYPJr9ZTZkZdLtBfF-168">
          <mxCell style="rounded=0;whiteSpace=wrap;html=1;" parent="1" vertex="1">
            <mxGeometry x="-193.12" y="398" width="90" height="40" as="geometry" />
          </mxCell>
        </object>
        <mxCell id="6elNYPJr9ZTZkZdLtBfF-169" value="&lt;font color=&quot;#172b4d&quot;&gt;&lt;span style=&quot;font-size: 14px ; background-color: rgb(255 , 255 , 255)&quot;&gt;忘记密码&lt;/span&gt;&lt;/font&gt;" style="rounded=0;whiteSpace=wrap;html=1;" parent="1" vertex="1">
          <mxGeometry x="2980" y="742" width="90" height="40" as="geometry" />
        </mxCell>
        <mxCell id="6elNYPJr9ZTZkZdLtBfF-171" value="" style="rounded=0;whiteSpace=wrap;html=1;dashed=1;align=left;" parent="1" vertex="1">
          <mxGeometry x="3535" y="363" width="320" height="103" as="geometry" />
        </mxCell>
        <mxCell id="6elNYPJr9ZTZkZdLtBfF-172" value="&lt;font color=&quot;#172b4d&quot;&gt;&lt;span style=&quot;font-size: 14px ; background-color: rgb(255 , 255 , 255)&quot;&gt;APP强制更新&lt;/span&gt;&lt;/font&gt;" style="rounded=0;whiteSpace=wrap;html=1;" parent="1" vertex="1">
          <mxGeometry x="3560" y="382.5" width="90" height="40" as="geometry" />
        </mxCell>
        <mxCell id="6elNYPJr9ZTZkZdLtBfF-173" value="&lt;font color=&quot;#172b4d&quot;&gt;&lt;span style=&quot;font-size: 14px ; background-color: rgb(255 , 255 , 255)&quot;&gt;运营身份权限标识&lt;/span&gt;&lt;/font&gt;" style="rounded=0;whiteSpace=wrap;html=1;" parent="1" vertex="1">
          <mxGeometry x="3663.13" y="382.5" width="90" height="40" as="geometry" />
        </mxCell>
        <mxCell id="6elNYPJr9ZTZkZdLtBfF-174" value="&lt;font color=&quot;#172b4d&quot;&gt;&lt;span style=&quot;font-size: 14px ; background-color: rgb(255 , 255 , 255)&quot;&gt;统计埋点&lt;/span&gt;&lt;/font&gt;" style="rounded=0;whiteSpace=wrap;html=1;" parent="1" vertex="1">
          <mxGeometry x="3760" y="382.5" width="90" height="40" as="geometry" />
        </mxCell>
        <mxCell id="6elNYPJr9ZTZkZdLtBfF-205" style="edgeStyle=orthogonalEdgeStyle;rounded=0;orthogonalLoop=1;jettySize=auto;html=1;dashed=1;endArrow=classic;endFill=1;entryX=0.553;entryY=0.05;entryDx=0;entryDy=0;entryPerimeter=0;" parent="1" source="6elNYPJr9ZTZkZdLtBfF-181" target="6elNYPJr9ZTZkZdLtBfF-203" edge="1">
          <mxGeometry relative="1" as="geometry">
            <mxPoint x="520" y="1140" as="targetPoint" />
          </mxGeometry>
        </mxCell>
        <mxCell id="6elNYPJr9ZTZkZdLtBfF-181" value="APP云负载均衡（专用证书）" style="rounded=0;whiteSpace=wrap;html=1;" parent="1" vertex="1">
          <mxGeometry x="710" y="1040" width="160" height="40" as="geometry" />
        </mxCell>
        <mxCell id="6elNYPJr9ZTZkZdLtBfF-182" value="接入层" style="rounded=0;whiteSpace=wrap;html=1;fillColor=#f8cecc;strokeColor=#b85450;" parent="1" vertex="1">
          <mxGeometry x="-510" y="990" width="90" height="40" as="geometry" />
        </mxCell>
        <mxCell id="6elNYPJr9ZTZkZdLtBfF-204" style="edgeStyle=orthogonalEdgeStyle;rounded=0;orthogonalLoop=1;jettySize=auto;html=1;dashed=1;endArrow=classic;endFill=1;" parent="1" source="6elNYPJr9ZTZkZdLtBfF-183" target="6elNYPJr9ZTZkZdLtBfF-203" edge="1">
          <mxGeometry relative="1" as="geometry" />
        </mxCell>
        <mxCell id="6elNYPJr9ZTZkZdLtBfF-183" value="APP云负载均衡（通用证书）" style="rounded=0;whiteSpace=wrap;html=1;" parent="1" vertex="1">
          <mxGeometry x="110" y="1040" width="170" height="40" as="geometry" />
        </mxCell>
        <mxCell id="6elNYPJr9ZTZkZdLtBfF-221" style="edgeStyle=orthogonalEdgeStyle;rounded=0;orthogonalLoop=1;jettySize=auto;html=1;dashed=1;fontColor=#1A1A1A;endArrow=classic;endFill=1;" parent="1" source="6elNYPJr9ZTZkZdLtBfF-184" target="6elNYPJr9ZTZkZdLtBfF-220" edge="1">
          <mxGeometry relative="1" as="geometry" />
        </mxCell>
        <mxCell id="6elNYPJr9ZTZkZdLtBfF-184" value="INGRESS 云负载均衡" style="rounded=0;whiteSpace=wrap;html=1;" parent="1" vertex="1">
          <mxGeometry x="1210" y="970" width="130" height="40" as="geometry" />
        </mxCell>
        <mxCell id="nJZEPm9KAdilQFLufLrE-73" style="edgeStyle=orthogonalEdgeStyle;rounded=0;orthogonalLoop=1;jettySize=auto;html=1;dashed=1;fontSize=13;fontColor=#1A1A1A;strokeWidth=1;" parent="1" source="6elNYPJr9ZTZkZdLtBfF-203" target="6elNYPJr9ZTZkZdLtBfF-206" edge="1">
          <mxGeometry relative="1" as="geometry" />
        </mxCell>
        <mxCell id="6elNYPJr9ZTZkZdLtBfF-203" value="NGINX SERVER（证书卸载）" style="rounded=0;whiteSpace=wrap;html=1;" parent="1" vertex="1">
          <mxGeometry x="430" y="1110" width="170" height="40" as="geometry" />
        </mxCell>
        <mxCell id="6elNYPJr9ZTZkZdLtBfF-214" style="edgeStyle=orthogonalEdgeStyle;rounded=0;orthogonalLoop=1;jettySize=auto;html=1;dashed=1;fontColor=#1A1A1A;endArrow=classic;endFill=1;" parent="1" source="6elNYPJr9ZTZkZdLtBfF-206" target="6elNYPJr9ZTZkZdLtBfF-213" edge="1">
          <mxGeometry relative="1" as="geometry" />
        </mxCell>
        <mxCell id="6elNYPJr9ZTZkZdLtBfF-206" value="bt-app-gateway&lt;br&gt;app网关" style="rounded=0;whiteSpace=wrap;html=1;" parent="1" vertex="1">
          <mxGeometry x="430" y="1200" width="170" height="50" as="geometry" />
        </mxCell>
        <mxCell id="nJZEPm9KAdilQFLufLrE-71" style="edgeStyle=orthogonalEdgeStyle;rounded=0;orthogonalLoop=1;jettySize=auto;html=1;entryX=0;entryY=0.5;entryDx=0;entryDy=0;dashed=1;fontSize=13;fontColor=#1A1A1A;strokeWidth=1;" parent="1" source="6elNYPJr9ZTZkZdLtBfF-213" target="nJZEPm9KAdilQFLufLrE-8" edge="1">
          <mxGeometry relative="1" as="geometry">
            <Array as="points">
              <mxPoint x="1160" y="1355" />
              <mxPoint x="1160" y="1535" />
            </Array>
          </mxGeometry>
        </mxCell>
        <mxCell id="nJZEPm9KAdilQFLufLrE-93" style="edgeStyle=orthogonalEdgeStyle;rounded=0;orthogonalLoop=1;jettySize=auto;html=1;dashed=1;fontSize=13;fontColor=#1A1A1A;endArrow=classic;endFill=1;strokeColor=default;strokeWidth=1;" parent="1" source="6elNYPJr9ZTZkZdLtBfF-213" target="nJZEPm9KAdilQFLufLrE-92" edge="1">
          <mxGeometry relative="1" as="geometry" />
        </mxCell>
        <mxCell id="6elNYPJr9ZTZkZdLtBfF-213" value="bt-app-api&lt;br&gt;app聚合层服务" style="rounded=0;whiteSpace=wrap;html=1;" parent="1" vertex="1">
          <mxGeometry x="430" y="1330" width="170" height="50" as="geometry" />
        </mxCell>
        <mxCell id="6elNYPJr9ZTZkZdLtBfF-215" value="聚合层" style="rounded=0;whiteSpace=wrap;html=1;fillColor=#dae8fc;strokeColor=#6c8ebf;" parent="1" vertex="1">
          <mxGeometry x="-350" y="1350" width="90" height="40" as="geometry" />
        </mxCell>
        <mxCell id="6elNYPJr9ZTZkZdLtBfF-216" value="网关层" style="rounded=0;whiteSpace=wrap;html=1;fillColor=#dae8fc;strokeColor=#6c8ebf;" parent="1" vertex="1">
          <mxGeometry x="-350" y="1205" width="90" height="40" as="geometry" />
        </mxCell>
        <mxCell id="6elNYPJr9ZTZkZdLtBfF-217" value="中台层" style="rounded=0;whiteSpace=wrap;html=1;fillColor=#dae8fc;strokeColor=#6c8ebf;" parent="1" vertex="1">
          <mxGeometry x="-360" y="1820" width="90" height="40" as="geometry" />
        </mxCell>
        <mxCell id="6elNYPJr9ZTZkZdLtBfF-219" value="" style="shape=link;html=1;rounded=0;endArrow=oval;endFill=0;" parent="1" edge="1">
          <mxGeometry width="100" relative="1" as="geometry">
            <mxPoint x="-520" y="1169" as="sourcePoint" />
            <mxPoint x="3880" y="1159" as="targetPoint" />
          </mxGeometry>
        </mxCell>
        <mxCell id="6elNYPJr9ZTZkZdLtBfF-223" style="edgeStyle=orthogonalEdgeStyle;rounded=0;orthogonalLoop=1;jettySize=auto;html=1;dashed=1;fontColor=#1A1A1A;endArrow=classic;endFill=1;" parent="1" source="6elNYPJr9ZTZkZdLtBfF-220" target="6elNYPJr9ZTZkZdLtBfF-222" edge="1">
          <mxGeometry relative="1" as="geometry" />
        </mxCell>
        <mxCell id="6elNYPJr9ZTZkZdLtBfF-220" value="NGINX-CTROLLER&lt;br&gt;K8S ingress控制器" style="rounded=0;whiteSpace=wrap;html=1;" parent="1" vertex="1">
          <mxGeometry x="1210" y="1060" width="130" height="40" as="geometry" />
        </mxCell>
        <mxCell id="6elNYPJr9ZTZkZdLtBfF-222" value="bt-h5-gateway&lt;br&gt;h5网关" style="rounded=0;whiteSpace=wrap;html=1;" parent="1" vertex="1">
          <mxGeometry x="1190" y="1200" width="170" height="50" as="geometry" />
        </mxCell>
        <mxCell id="6elNYPJr9ZTZkZdLtBfF-232" value="" style="shape=link;html=1;rounded=0;endArrow=oval;endFill=0;strokeColor=#b85450;fillColor=#f8cecc;" parent="1" edge="1">
          <mxGeometry width="100" relative="1" as="geometry">
            <mxPoint x="-400" y="1290" as="sourcePoint" />
            <mxPoint x="3880" y="1280" as="targetPoint" />
          </mxGeometry>
        </mxCell>
        <mxCell id="6elNYPJr9ZTZkZdLtBfF-243" value="" style="shape=link;html=1;rounded=0;endArrow=oval;endFill=0;strokeColor=#b85450;fillColor=#f8cecc;" parent="1" edge="1">
          <mxGeometry width="100" relative="1" as="geometry">
            <mxPoint x="-401" y="1430" as="sourcePoint" />
            <mxPoint x="3880" y="1420" as="targetPoint" />
          </mxGeometry>
        </mxCell>
        <mxCell id="6elNYPJr9ZTZkZdLtBfF-279" value="数据层" style="rounded=0;whiteSpace=wrap;html=1;fillColor=#dae8fc;strokeColor=#6c8ebf;" parent="1" vertex="1">
          <mxGeometry x="-350" y="2420" width="90" height="40" as="geometry" />
        </mxCell>
        <mxCell id="6elNYPJr9ZTZkZdLtBfF-280" value="" style="shape=link;html=1;rounded=0;endArrow=oval;endFill=0;strokeColor=#b85450;fillColor=#f8cecc;" parent="1" edge="1">
          <mxGeometry width="100" relative="1" as="geometry">
            <mxPoint x="-395" y="2390" as="sourcePoint" />
            <mxPoint x="3855" y="2380" as="targetPoint" />
          </mxGeometry>
        </mxCell>
        <mxCell id="nJZEPm9KAdilQFLufLrE-3" value="&lt;span style=&quot;background-color: rgb(212 , 225 , 245)&quot;&gt;&lt;b&gt;未登录APP入口&lt;/b&gt;&lt;/span&gt;" style="text;html=1;align=center;verticalAlign=middle;resizable=0;points=[];autosize=1;strokeColor=none;fillColor=none;fontColor=#1A1A1A;" parent="1" vertex="1">
          <mxGeometry x="145" y="990" width="100" height="20" as="geometry" />
        </mxCell>
        <mxCell id="nJZEPm9KAdilQFLufLrE-4" value="&lt;b style=&quot;font-size: 12px ; background-color: rgb(212 , 225 , 245)&quot;&gt;已登录用户入口&lt;/b&gt;" style="edgeLabel;html=1;align=center;verticalAlign=middle;resizable=0;points=[];fontColor=#1A1A1A;" parent="1" vertex="1" connectable="0">
          <mxGeometry x="769.9982352941175" y="980" as="geometry">
            <mxPoint x="25" y="19" as="offset" />
          </mxGeometry>
        </mxCell>
        <mxCell id="nJZEPm9KAdilQFLufLrE-49" style="edgeStyle=orthogonalEdgeStyle;rounded=0;orthogonalLoop=1;jettySize=auto;html=1;entryX=0;entryY=0.5;entryDx=0;entryDy=0;dashed=1;fontSize=13;startArrow=none;" parent="1" source="nJZEPm9KAdilQFLufLrE-56" target="nJZEPm9KAdilQFLufLrE-41" edge="1">
          <mxGeometry relative="1" as="geometry">
            <Array as="points">
              <mxPoint x="788" y="2907" />
            </Array>
          </mxGeometry>
        </mxCell>
        <mxCell id="nJZEPm9KAdilQFLufLrE-50" value="&lt;b&gt;&lt;font style=&quot;background-color: rgb(212 , 225 , 245)&quot; color=&quot;#1a1a1a&quot;&gt;公网白名单&lt;/font&gt;&lt;/b&gt;" style="edgeLabel;html=1;align=center;verticalAlign=middle;resizable=0;points=[];fontSize=13;" parent="nJZEPm9KAdilQFLufLrE-49" vertex="1" connectable="0">
          <mxGeometry x="0.5177" y="3" relative="1" as="geometry">
            <mxPoint x="-281" y="3" as="offset" />
          </mxGeometry>
        </mxCell>
        <mxCell id="nJZEPm9KAdilQFLufLrE-121" style="edgeStyle=orthogonalEdgeStyle;rounded=0;jumpStyle=line;orthogonalLoop=1;jettySize=auto;html=1;dashed=1;fontSize=12;fontColor=#1A1A1A;endArrow=classic;endFill=1;strokeColor=default;strokeWidth=1;" parent="1" source="nJZEPm9KAdilQFLufLrE-5" target="nJZEPm9KAdilQFLufLrE-56" edge="1">
          <mxGeometry relative="1" as="geometry">
            <Array as="points">
              <mxPoint x="1002" y="2010" />
              <mxPoint x="516" y="2010" />
            </Array>
          </mxGeometry>
        </mxCell>
        <mxCell id="nJZEPm9KAdilQFLufLrE-5" value="&lt;font style=&quot;font-size: 13px&quot;&gt;gwm-cmp-service&lt;br&gt;短信服务&lt;br&gt;&lt;/font&gt;" style="rounded=0;whiteSpace=wrap;html=1;" parent="1" vertex="1">
          <mxGeometry x="934" y="1870" width="136" height="40" as="geometry" />
        </mxCell>
        <mxCell id="nJZEPm9KAdilQFLufLrE-16" style="edgeStyle=orthogonalEdgeStyle;rounded=0;orthogonalLoop=1;jettySize=auto;html=1;fontSize=24;dashed=1;" parent="1" source="nJZEPm9KAdilQFLufLrE-8" target="nJZEPm9KAdilQFLufLrE-13" edge="1">
          <mxGeometry relative="1" as="geometry">
            <Array as="points">
              <mxPoint x="1583" y="1460" />
            </Array>
          </mxGeometry>
        </mxCell>
        <mxCell id="nJZEPm9KAdilQFLufLrE-30" style="edgeStyle=orthogonalEdgeStyle;rounded=0;orthogonalLoop=1;jettySize=auto;html=1;dashed=1;fontSize=24;" parent="1" source="nJZEPm9KAdilQFLufLrE-8" target="nJZEPm9KAdilQFLufLrE-18" edge="1">
          <mxGeometry relative="1" as="geometry" />
        </mxCell>
        <mxCell id="nJZEPm9KAdilQFLufLrE-32" style="edgeStyle=orthogonalEdgeStyle;rounded=0;orthogonalLoop=1;jettySize=auto;html=1;dashed=1;fontSize=24;" parent="1" source="nJZEPm9KAdilQFLufLrE-8" target="nJZEPm9KAdilQFLufLrE-20" edge="1">
          <mxGeometry relative="1" as="geometry" />
        </mxCell>
        <mxCell id="nJZEPm9KAdilQFLufLrE-82" style="edgeStyle=orthogonalEdgeStyle;rounded=0;orthogonalLoop=1;jettySize=auto;html=1;entryX=1;entryY=0.5;entryDx=0;entryDy=0;fontSize=13;fontColor=#1A1A1A;endArrow=classic;endFill=1;strokeColor=default;strokeWidth=1;dashed=1;" parent="1" edge="1">
          <mxGeometry relative="1" as="geometry">
            <mxPoint x="1541" y="1532" as="sourcePoint" />
            <mxPoint x="1285" y="2019.5" as="targetPoint" />
            <Array as="points">
              <mxPoint x="1400" y="1532" />
              <mxPoint x="1400" y="2020" />
            </Array>
          </mxGeometry>
        </mxCell>
        <mxCell id="nJZEPm9KAdilQFLufLrE-105" style="edgeStyle=orthogonalEdgeStyle;rounded=0;orthogonalLoop=1;jettySize=auto;html=1;entryX=0;entryY=0.5;entryDx=0;entryDy=0;dashed=1;fontSize=13;fontColor=#1A1A1A;endArrow=classic;endFill=1;strokeColor=default;strokeWidth=1;" parent="1" source="nJZEPm9KAdilQFLufLrE-8" target="nJZEPm9KAdilQFLufLrE-103" edge="1">
          <mxGeometry relative="1" as="geometry">
            <Array as="points">
              <mxPoint x="1583" y="1610" />
            </Array>
          </mxGeometry>
        </mxCell>
        <mxCell id="nJZEPm9KAdilQFLufLrE-8" value="应用接入" style="rounded=0;whiteSpace=wrap;html=1;" parent="1" vertex="1">
          <mxGeometry x="1541" y="1505" width="83.13" height="50" as="geometry" />
        </mxCell>
        <mxCell id="nJZEPm9KAdilQFLufLrE-11" value="&lt;h1&gt;&lt;font style=&quot;font-size: 24px&quot;&gt;长城TSP&lt;/font&gt;&lt;/h1&gt;" style="text;html=1;strokeColor=none;fillColor=none;spacing=5;spacingTop=-20;whiteSpace=wrap;overflow=hidden;rounded=0;fontSize=17;" parent="1" vertex="1">
          <mxGeometry x="-238.12" y="1300" width="160" height="60" as="geometry" />
        </mxCell>
        <mxCell id="nJZEPm9KAdilQFLufLrE-12" value="&lt;h1&gt;&lt;font style=&quot;font-size: 24px&quot;&gt;华为TSP&lt;/font&gt;&lt;/h1&gt;" style="text;html=1;strokeColor=none;fillColor=none;spacing=5;spacingTop=-20;whiteSpace=wrap;overflow=hidden;rounded=0;fontSize=17;" parent="1" vertex="1">
          <mxGeometry x="1355" y="1295" width="160" height="50" as="geometry" />
        </mxCell>
        <mxCell id="nJZEPm9KAdilQFLufLrE-13" value="远控唤醒" style="rounded=0;whiteSpace=wrap;html=1;" parent="1" vertex="1">
          <mxGeometry x="1541" y="1435" width="79" height="50" as="geometry" />
        </mxCell>
        <mxCell id="nJZEPm9KAdilQFLufLrE-15" value="公网&amp;nbsp;" style="edgeLabel;html=1;align=center;verticalAlign=middle;resizable=0;points=[];fontStyle=1;fontSize=17;" parent="1" vertex="1" connectable="0">
          <mxGeometry x="120.0011764705879" y="990" as="geometry">
            <mxPoint x="18" y="-10" as="offset" />
          </mxGeometry>
        </mxCell>
        <mxCell id="nJZEPm9KAdilQFLufLrE-18" value="REDIS" style="rounded=0;whiteSpace=wrap;html=1;" parent="1" vertex="1">
          <mxGeometry x="1538.0700000000002" y="1685" width="89" height="50" as="geometry" />
        </mxCell>
        <mxCell id="nJZEPm9KAdilQFLufLrE-34" style="edgeStyle=orthogonalEdgeStyle;rounded=0;orthogonalLoop=1;jettySize=auto;html=1;dashed=1;fontSize=24;" parent="1" source="nJZEPm9KAdilQFLufLrE-20" target="nJZEPm9KAdilQFLufLrE-33" edge="1">
          <mxGeometry relative="1" as="geometry" />
        </mxCell>
        <mxCell id="nJZEPm9KAdilQFLufLrE-20" value="KAFKA&lt;br&gt;车况，在线，远控" style="rounded=0;whiteSpace=wrap;html=1;" parent="1" vertex="1">
          <mxGeometry x="1720" y="1505" width="100" height="50" as="geometry" />
        </mxCell>
        <mxCell id="nJZEPm9KAdilQFLufLrE-22" value="AWS终端节点" style="rounded=0;whiteSpace=wrap;html=1;" parent="1" vertex="1">
          <mxGeometry x="1270" y="1830" width="145" height="20" as="geometry" />
        </mxCell>
        <mxCell id="nJZEPm9KAdilQFLufLrE-36" style="edgeStyle=orthogonalEdgeStyle;rounded=0;orthogonalLoop=1;jettySize=auto;html=1;dashed=1;fontSize=24;" parent="1" source="nJZEPm9KAdilQFLufLrE-33" target="nJZEPm9KAdilQFLufLrE-35" edge="1">
          <mxGeometry relative="1" as="geometry" />
        </mxCell>
        <mxCell id="nJZEPm9KAdilQFLufLrE-33" value="远控下发" style="rounded=0;whiteSpace=wrap;html=1;" parent="1" vertex="1">
          <mxGeometry x="1890" y="1505" width="100" height="50" as="geometry" />
        </mxCell>
        <mxCell id="nJZEPm9KAdilQFLufLrE-52" style="edgeStyle=orthogonalEdgeStyle;rounded=0;orthogonalLoop=1;jettySize=auto;html=1;dashed=1;fontSize=13;fontColor=#1A1A1A;strokeWidth=1;" parent="1" source="nJZEPm9KAdilQFLufLrE-35" target="nJZEPm9KAdilQFLufLrE-41" edge="1">
          <mxGeometry relative="1" as="geometry">
            <Array as="points">
              <mxPoint x="2100" y="2907" />
            </Array>
          </mxGeometry>
        </mxCell>
        <mxCell id="nJZEPm9KAdilQFLufLrE-54" value="APN" style="edgeLabel;html=1;align=center;verticalAlign=middle;resizable=0;points=[];fontSize=13;fontColor=#1A1A1A;" parent="nJZEPm9KAdilQFLufLrE-52" vertex="1" connectable="0">
          <mxGeometry x="0.8451" y="1" relative="1" as="geometry">
            <mxPoint x="9" y="-1" as="offset" />
          </mxGeometry>
        </mxCell>
        <mxCell id="nJZEPm9KAdilQFLufLrE-35" value="OC" style="rounded=0;whiteSpace=wrap;html=1;" parent="1" vertex="1">
          <mxGeometry x="2050" y="1505" width="100" height="50" as="geometry" />
        </mxCell>
        <mxCell id="nJZEPm9KAdilQFLufLrE-37" value="T-BOX" style="rounded=0;whiteSpace=wrap;html=1;" parent="1" vertex="1">
          <mxGeometry x="1359.9999999999998" y="3022" width="100" height="50" as="geometry" />
        </mxCell>
        <mxCell id="nJZEPm9KAdilQFLufLrE-53" style="edgeStyle=orthogonalEdgeStyle;rounded=0;orthogonalLoop=1;jettySize=auto;html=1;dashed=1;fontSize=13;fontColor=#1A1A1A;strokeWidth=1;" parent="1" source="nJZEPm9KAdilQFLufLrE-41" target="nJZEPm9KAdilQFLufLrE-37" edge="1">
          <mxGeometry relative="1" as="geometry" />
        </mxCell>
        <mxCell id="nJZEPm9KAdilQFLufLrE-55" value="APN" style="edgeLabel;html=1;align=center;verticalAlign=middle;resizable=0;points=[];fontSize=13;fontColor=#1A1A1A;" parent="nJZEPm9KAdilQFLufLrE-53" vertex="1" connectable="0">
          <mxGeometry x="-0.2129" y="4" relative="1" as="geometry">
            <mxPoint x="-4" y="4" as="offset" />
          </mxGeometry>
        </mxCell>
        <mxCell id="nJZEPm9KAdilQFLufLrE-41" value="&lt;font style=&quot;font-size: 13px&quot;&gt;&lt;span style=&quot;color: rgb(23 , 26 , 29) ; font-family: &amp;#34;microsoft yahei&amp;#34; , &amp;#34;segoe ui&amp;#34; , , &amp;#34;roboto&amp;#34; , &amp;#34;droid sans&amp;#34; , &amp;#34;helvetica neue&amp;#34; , sans-serif , &amp;#34;tahoma&amp;#34; , &amp;#34;segoe ui symbolmyanmar text&amp;#34; , ; font-size: 14px ; text-align: left ; background-color: rgb(255 , 255 , 255)&quot;&gt;telenor电信运营商&lt;/span&gt;&lt;br&gt;&lt;/font&gt;" style="rounded=0;whiteSpace=wrap;html=1;" parent="1" vertex="1">
          <mxGeometry x="1325" y="2882" width="170" height="50" as="geometry" />
        </mxCell>
        <mxCell id="-1jfbta0snUhKDycxlzX-44" style="edgeStyle=orthogonalEdgeStyle;rounded=0;orthogonalLoop=1;jettySize=auto;html=1;dashed=1;endArrow=classic;endFill=1;" parent="1" source="nJZEPm9KAdilQFLufLrE-56" target="-1jfbta0snUhKDycxlzX-43" edge="1">
          <mxGeometry relative="1" as="geometry" />
        </mxCell>
        <mxCell id="nJZEPm9KAdilQFLufLrE-56" value="K8S" style="rounded=0;whiteSpace=wrap;html=1;" parent="1" vertex="1">
          <mxGeometry x="474.92999999999984" y="2882" width="83.13" height="50" as="geometry" />
        </mxCell>
        <mxCell id="nJZEPm9KAdilQFLufLrE-84" style="edgeStyle=orthogonalEdgeStyle;rounded=0;orthogonalLoop=1;jettySize=auto;html=1;dashed=1;fontSize=13;fontColor=#1A1A1A;endArrow=classic;endFill=1;strokeColor=default;strokeWidth=1;" parent="1" source="nJZEPm9KAdilQFLufLrE-80" target="nJZEPm9KAdilQFLufLrE-83" edge="1">
          <mxGeometry relative="1" as="geometry" />
        </mxCell>
        <mxCell id="nJZEPm9KAdilQFLufLrE-80" value="&lt;font style=&quot;font-size: 13px&quot;&gt;bt-third-system-gateway&lt;br&gt;第三方网关&lt;br&gt;&lt;/font&gt;" style="rounded=0;whiteSpace=wrap;html=1;" parent="1" vertex="1">
          <mxGeometry x="1145" y="1995" width="140" height="45" as="geometry" />
        </mxCell>
        <mxCell id="nJZEPm9KAdilQFLufLrE-83" value="&lt;font style=&quot;font-size: 13px&quot;&gt;bt-third-system-service&lt;br&gt;&lt;/font&gt;" style="rounded=0;whiteSpace=wrap;html=1;" parent="1" vertex="1">
          <mxGeometry x="1146" y="2067.11" width="136" height="40" as="geometry" />
        </mxCell>
        <mxCell id="-1jfbta0snUhKDycxlzX-14" style="edgeStyle=orthogonalEdgeStyle;rounded=0;orthogonalLoop=1;jettySize=auto;html=1;dashed=1;" parent="1" source="nJZEPm9KAdilQFLufLrE-85" target="nJZEPm9KAdilQFLufLrE-56" edge="1">
          <mxGeometry relative="1" as="geometry">
            <Array as="points">
              <mxPoint x="134" y="1820" />
              <mxPoint x="516" y="1820" />
            </Array>
          </mxGeometry>
        </mxCell>
        <UserObject label="&lt;font style=&quot;font-size: 13px&quot;&gt;bt-message-sms-servce&lt;br&gt;短信服务&lt;br&gt;&lt;/font&gt;" link="https://wiki.gwmdevops.com/x/3as0AQ" linkTarget="_blank" id="nJZEPm9KAdilQFLufLrE-85">
          <mxCell style="rounded=0;whiteSpace=wrap;html=1;" parent="1" vertex="1">
            <mxGeometry x="64.09" y="1735.5" width="140" height="50" as="geometry" />
          </mxCell>
        </UserObject>
        <mxCell id="nJZEPm9KAdilQFLufLrE-99" style="edgeStyle=orthogonalEdgeStyle;rounded=0;orthogonalLoop=1;jettySize=auto;html=1;dashed=1;fontSize=13;fontColor=#1A1A1A;endArrow=classic;endFill=1;strokeWidth=1;" parent="1" source="nJZEPm9KAdilQFLufLrE-90" target="nJZEPm9KAdilQFLufLrE-97" edge="1">
          <mxGeometry relative="1" as="geometry" />
        </mxCell>
        <UserObject label="&lt;font style=&quot;font-size: 13px&quot;&gt;bt-user-auth&lt;br&gt;&lt;/font&gt;" link="https://wiki.gwmdevops.com/x/47s0AQ" id="nJZEPm9KAdilQFLufLrE-90">
          <mxCell style="rounded=0;whiteSpace=wrap;html=1;fillColor=#fff2cc;strokeColor=#d6b656;" parent="1" vertex="1">
            <mxGeometry x="152.06" y="1480" width="136" height="40" as="geometry" />
          </mxCell>
        </UserObject>
        <mxCell id="nJZEPm9KAdilQFLufLrE-132" style="edgeStyle=orthogonalEdgeStyle;rounded=0;jumpStyle=line;orthogonalLoop=1;jettySize=auto;html=1;dashed=1;fontSize=12;fontColor=#1A1A1A;endArrow=classic;endFill=1;strokeWidth=1;" parent="1" source="nJZEPm9KAdilQFLufLrE-97" target="nJZEPm9KAdilQFLufLrE-131" edge="1">
          <mxGeometry relative="1" as="geometry">
            <Array as="points">
              <mxPoint x="-40.94" y="1500" />
              <mxPoint x="-40.94" y="1570" />
            </Array>
          </mxGeometry>
        </mxCell>
        <UserObject label="&lt;font style=&quot;font-size: 13px&quot;&gt;bt-user-account&lt;br&gt;用户中心服务&lt;br&gt;&lt;/font&gt;" link="https://wiki.gwmdevops.com/x/NhfJ" linkTarget="_blank" id="nJZEPm9KAdilQFLufLrE-97">
          <mxCell style="rounded=0;whiteSpace=wrap;html=1;" parent="1" vertex="1">
            <mxGeometry x="-27.94" y="1480" width="136" height="40" as="geometry" />
          </mxCell>
        </UserObject>
        <mxCell id="nJZEPm9KAdilQFLufLrE-98" value="&lt;font style=&quot;font-size: 13px&quot;&gt;bt-operation-support&lt;br&gt;协议管理&lt;br&gt;&lt;/font&gt;" style="rounded=0;whiteSpace=wrap;html=1;" parent="1" vertex="1">
          <mxGeometry x="-215.06" y="1480" width="136" height="40" as="geometry" />
        </mxCell>
        <object label="REDIS" id="nJZEPm9KAdilQFLufLrE-101">
          <mxCell style="rounded=0;whiteSpace=wrap;html=1;" parent="1" vertex="1">
            <mxGeometry x="191.0000000000001" y="2510" width="89" height="50" as="geometry" />
          </mxCell>
        </object>
        <mxCell id="nJZEPm9KAdilQFLufLrE-103" value="hw-user-service" style="rounded=0;whiteSpace=wrap;html=1;" parent="1" vertex="1">
          <mxGeometry x="1720" y="1580" width="100" height="50" as="geometry" />
        </mxCell>
        <mxCell id="nJZEPm9KAdilQFLufLrE-117" style="edgeStyle=orthogonalEdgeStyle;rounded=0;orthogonalLoop=1;jettySize=auto;html=1;dashed=1;fontSize=12;fontColor=#1A1A1A;endArrow=classic;endFill=1;strokeWidth=1;" parent="1" source="nJZEPm9KAdilQFLufLrE-113" target="nJZEPm9KAdilQFLufLrE-116" edge="1">
          <mxGeometry relative="1" as="geometry" />
        </mxCell>
        <mxCell id="nJZEPm9KAdilQFLufLrE-113" value="&lt;font&gt;&lt;span style=&quot;font-size: 13px&quot;&gt;腾讯云短信服务&lt;/span&gt;&lt;br&gt;&lt;span&gt;&lt;font style=&quot;font-size: 12px&quot;&gt;sms.tencentcloudapi.com&lt;/font&gt;&lt;/span&gt;&lt;br&gt;&lt;/font&gt;" style="rounded=0;whiteSpace=wrap;html=1;" parent="1" vertex="1">
          <mxGeometry x="560" y="3180" width="140" height="50" as="geometry" />
        </mxCell>
        <mxCell id="nJZEPm9KAdilQFLufLrE-116" value="&lt;font&gt;&lt;font style=&quot;font-size: 13px&quot;&gt;当地运营商&lt;/font&gt;&lt;br&gt;&lt;/font&gt;" style="rounded=0;whiteSpace=wrap;html=1;" parent="1" vertex="1">
          <mxGeometry x="560" y="3280" width="140" height="50" as="geometry" />
        </mxCell>
        <mxCell id="nJZEPm9KAdilQFLufLrE-125" style="edgeStyle=orthogonalEdgeStyle;rounded=0;jumpStyle=line;orthogonalLoop=1;jettySize=auto;html=1;dashed=1;fontSize=12;fontColor=#1A1A1A;endArrow=classic;endFill=1;strokeWidth=1;" parent="1" source="nJZEPm9KAdilQFLufLrE-123" target="nJZEPm9KAdilQFLufLrE-124" edge="1">
          <mxGeometry relative="1" as="geometry" />
        </mxCell>
        <UserObject label="&lt;font style=&quot;font-size: 13px&quot;&gt;gwm-pki-api-presentation&lt;br&gt;&lt;/font&gt;" link="https://wiki.gwmdevops.com/x/aCSL" linkTarget="_blank" id="nJZEPm9KAdilQFLufLrE-123">
          <mxCell style="rounded=0;whiteSpace=wrap;html=1;" parent="1" vertex="1">
            <mxGeometry x="152.06" y="1540" width="136" height="40" as="geometry" />
          </mxCell>
        </UserObject>
        <UserObject label="&lt;font style=&quot;font-size: 13px&quot;&gt;PKI(外部服务)&lt;br&gt;签发证书&lt;br&gt;&lt;/font&gt;" link="https://wiki.gwmdevops.com/x/VoD8" linkTarget="_blank" id="nJZEPm9KAdilQFLufLrE-124">
          <mxCell style="rounded=0;whiteSpace=wrap;html=1;" parent="1" vertex="1">
            <mxGeometry x="-20.94" y="1540" width="133" height="40" as="geometry" />
          </mxCell>
        </UserObject>
        <mxCell id="-1jfbta0snUhKDycxlzX-5" style="edgeStyle=orthogonalEdgeStyle;rounded=0;orthogonalLoop=1;jettySize=auto;html=1;entryX=1;entryY=0.5;entryDx=0;entryDy=0;dashed=1;" parent="1" source="nJZEPm9KAdilQFLufLrE-92" target="nJZEPm9KAdilQFLufLrE-123" edge="1">
          <mxGeometry relative="1" as="geometry" />
        </mxCell>
        <mxCell id="-1jfbta0snUhKDycxlzX-31" style="edgeStyle=orthogonalEdgeStyle;rounded=0;orthogonalLoop=1;jettySize=auto;html=1;entryX=1;entryY=0.5;entryDx=0;entryDy=0;dashed=1;" parent="1" source="nJZEPm9KAdilQFLufLrE-92" target="nJZEPm9KAdilQFLufLrE-90" edge="1">
          <mxGeometry relative="1" as="geometry" />
        </mxCell>
        <mxCell id="-1jfbta0snUhKDycxlzX-33" style="edgeStyle=orthogonalEdgeStyle;rounded=0;orthogonalLoop=1;jettySize=auto;html=1;entryX=1;entryY=0.5;entryDx=0;entryDy=0;dashed=1;" parent="1" source="nJZEPm9KAdilQFLufLrE-92" target="nJZEPm9KAdilQFLufLrE-85" edge="1">
          <mxGeometry relative="1" as="geometry">
            <Array as="points">
              <mxPoint x="515" y="1760" />
            </Array>
          </mxGeometry>
        </mxCell>
        <mxCell id="-1jfbta0snUhKDycxlzX-39" style="edgeStyle=orthogonalEdgeStyle;rounded=0;orthogonalLoop=1;jettySize=auto;html=1;dashed=1;endArrow=classic;endFill=1;" parent="1" source="nJZEPm9KAdilQFLufLrE-92" target="nJZEPm9KAdilQFLufLrE-5" edge="1">
          <mxGeometry relative="1" as="geometry" />
        </mxCell>
        <mxCell id="nJZEPm9KAdilQFLufLrE-92" value="&lt;font style=&quot;font-size: 13px&quot;&gt;bt-zt-gateway&lt;br&gt;中台网关&lt;br&gt;&lt;/font&gt;" style="rounded=0;whiteSpace=wrap;html=1;" parent="1" vertex="1">
          <mxGeometry x="447" y="1645" width="136" height="40" as="geometry" />
        </mxCell>
        <mxCell id="nJZEPm9KAdilQFLufLrE-127" value="" style="edgeStyle=orthogonalEdgeStyle;rounded=0;orthogonalLoop=1;jettySize=auto;html=1;dashed=1;fontSize=13;fontColor=#1A1A1A;endArrow=none;endFill=1;strokeColor=default;strokeWidth=1;" parent="1" source="6elNYPJr9ZTZkZdLtBfF-213" target="nJZEPm9KAdilQFLufLrE-92" edge="1">
          <mxGeometry relative="1" as="geometry">
            <mxPoint x="515" y="1380" as="sourcePoint" />
            <mxPoint x="515" y="1940" as="targetPoint" />
          </mxGeometry>
        </mxCell>
        <UserObject label="&lt;font color=&quot;#172b4d&quot;&gt;&lt;span style=&quot;font-size: 14px ; background-color: rgb(255 , 255 , 255)&quot;&gt;第三方登录&lt;/span&gt;&lt;/font&gt;" biz="用户登录" id="nJZEPm9KAdilQFLufLrE-130">
          <mxCell style="rounded=0;whiteSpace=wrap;html=1;" parent="1" vertex="1">
            <mxGeometry x="-73.12" y="458.5" width="90" height="35" as="geometry" />
          </mxCell>
        </UserObject>
        <mxCell id="nJZEPm9KAdilQFLufLrE-131" value="&lt;font style=&quot;font-size: 13px&quot;&gt;bt-common-uniqueid-service 注册gwid&lt;br&gt;&lt;/font&gt;" style="rounded=0;whiteSpace=wrap;html=1;" parent="1" vertex="1">
          <mxGeometry x="-215.06" y="1550" width="136" height="40" as="geometry" />
        </mxCell>
        <mxCell id="nJZEPm9KAdilQFLufLrE-136" value="&lt;font style=&quot;font-size: 15px&quot;&gt;用户中心&lt;/font&gt;" style="text;html=1;strokeColor=none;fillColor=none;align=center;verticalAlign=middle;whiteSpace=wrap;rounded=0;dashed=1;labelBackgroundColor=#D4E1F5;fontSize=12;fontColor=#1A1A1A;" parent="1" vertex="1">
          <mxGeometry x="230.06" y="1570" width="79" height="50" as="geometry" />
        </mxCell>
        <mxCell id="nJZEPm9KAdilQFLufLrE-139" value="&lt;font style=&quot;font-size: 15px&quot;&gt;消息中心&lt;/font&gt;" style="text;html=1;strokeColor=none;fillColor=none;align=center;verticalAlign=middle;whiteSpace=wrap;rounded=0;dashed=1;labelBackgroundColor=#D4E1F5;fontSize=12;fontColor=#1A1A1A;" parent="1" vertex="1">
          <mxGeometry x="235.09" y="1755.5" width="79" height="50" as="geometry" />
        </mxCell>
        <mxCell id="-1jfbta0snUhKDycxlzX-16" style="edgeStyle=orthogonalEdgeStyle;rounded=0;orthogonalLoop=1;jettySize=auto;html=1;dashed=1;" parent="1" source="nJZEPm9KAdilQFLufLrE-141" target="nJZEPm9KAdilQFLufLrE-56" edge="1">
          <mxGeometry relative="1" as="geometry">
            <Array as="points">
              <mxPoint x="-70" y="1820" />
              <mxPoint x="516" y="1820" />
            </Array>
          </mxGeometry>
        </mxCell>
        <UserObject label="&lt;font style=&quot;font-size: 13px&quot;&gt;bt-message-push-servce&lt;br&gt;发送邮件&lt;br&gt;&lt;/font&gt;" link="https://wiki.gwmdevops.com/x/AQcV" linkTarget="_blank" id="nJZEPm9KAdilQFLufLrE-141">
          <mxCell style="rounded=0;whiteSpace=wrap;html=1;" parent="1" vertex="1">
            <mxGeometry x="-140" y="1670" width="140" height="50" as="geometry" />
          </mxCell>
        </UserObject>
        <mxCell id="nJZEPm9KAdilQFLufLrE-143" value="MYSQL" style="rounded=0;whiteSpace=wrap;html=1;" parent="1" vertex="1">
          <mxGeometry x="358.0000000000001" y="2510" width="89" height="50" as="geometry" />
        </mxCell>
        <mxCell id="nJZEPm9KAdilQFLufLrE-151" value="MONGODB" style="rounded=0;whiteSpace=wrap;html=1;" parent="1" vertex="1">
          <mxGeometry x="1.5300000000001137" y="2510" width="89" height="50" as="geometry" />
        </mxCell>
        <mxCell id="-1jfbta0snUhKDycxlzX-2" style="edgeStyle=orthogonalEdgeStyle;rounded=0;orthogonalLoop=1;jettySize=auto;html=1;" parent="1" source="-1jfbta0snUhKDycxlzX-1" target="nJZEPm9KAdilQFLufLrE-141" edge="1">
          <mxGeometry relative="1" as="geometry" />
        </mxCell>
        <mxCell id="-1jfbta0snUhKDycxlzX-17" value="&lt;font&gt;&lt;span style=&quot;font-size: 13px&quot;&gt;邮箱服务&lt;br&gt;&lt;/span&gt;&lt;br&gt;&lt;/font&gt;" style="rounded=0;whiteSpace=wrap;html=1;" parent="1" vertex="1">
          <mxGeometry x="350" y="3180" width="140" height="50" as="geometry" />
        </mxCell>
        <mxCell id="-1jfbta0snUhKDycxlzX-21" value="&lt;font style=&quot;font-size: 15px&quot;&gt;第三方入口&lt;/font&gt;" style="text;html=1;strokeColor=none;fillColor=none;align=center;verticalAlign=middle;whiteSpace=wrap;rounded=0;dashed=1;labelBackgroundColor=#D4E1F5;fontSize=12;fontColor=#1A1A1A;" parent="1" vertex="1">
          <mxGeometry x="1231" y="2100" width="79" height="50" as="geometry" />
        </mxCell>
        <mxCell id="-1jfbta0snUhKDycxlzX-25" value="&lt;font style=&quot;font-size: 13px&quot;&gt;&lt;br&gt;&lt;/font&gt;" style="rounded=0;whiteSpace=wrap;html=1;dashed=1;" parent="1" vertex="1">
          <mxGeometry x="-222.03" y="1850" width="536.12" height="140" as="geometry" />
        </mxCell>
        <mxCell id="-1jfbta0snUhKDycxlzX-26" value="&lt;font style=&quot;font-size: 13px&quot;&gt;&lt;br&gt;&lt;/font&gt;" style="rounded=0;whiteSpace=wrap;html=1;dashed=1;" parent="1" vertex="1">
          <mxGeometry x="-222.03" y="2040" width="536.12" height="140" as="geometry" />
        </mxCell>
        <mxCell id="-1jfbta0snUhKDycxlzX-27" value="&lt;span style=&quot;font-size: 15px&quot;&gt;社区中心&lt;/span&gt;" style="text;html=1;strokeColor=none;fillColor=none;align=center;verticalAlign=middle;whiteSpace=wrap;rounded=0;dashed=1;labelBackgroundColor=#D4E1F5;fontSize=12;fontColor=#1A1A1A;" parent="1" vertex="1">
          <mxGeometry x="234.15" y="1950" width="79" height="50" as="geometry" />
        </mxCell>
        <mxCell id="-1jfbta0snUhKDycxlzX-28" value="&lt;span style=&quot;font-size: 15px&quot;&gt;商城&lt;/span&gt;" style="text;html=1;strokeColor=none;fillColor=none;align=center;verticalAlign=middle;whiteSpace=wrap;rounded=0;dashed=1;labelBackgroundColor=#D4E1F5;fontSize=12;fontColor=#1A1A1A;" parent="1" vertex="1">
          <mxGeometry x="245" y="2140" width="79" height="50" as="geometry" />
        </mxCell>
        <UserObject label="&lt;font style=&quot;font-size: 13px&quot;&gt;bt-message-center&lt;br&gt;发送邮件&lt;br&gt;&lt;/font&gt;" link="https://wiki.gwmdevops.com/x/AQcV" linkTarget="_blank" id="-1jfbta0snUhKDycxlzX-1">
          <mxCell style="rounded=0;whiteSpace=wrap;html=1;" parent="1" vertex="1">
            <mxGeometry x="64.09" y="1670" width="140" height="50" as="geometry" />
          </mxCell>
        </UserObject>
        <mxCell id="-1jfbta0snUhKDycxlzX-32" value="" style="edgeStyle=orthogonalEdgeStyle;rounded=0;orthogonalLoop=1;jettySize=auto;html=1;dashed=1;endArrow=classic;endFill=1;" parent="1" source="nJZEPm9KAdilQFLufLrE-92" target="-1jfbta0snUhKDycxlzX-1" edge="1">
          <mxGeometry relative="1" as="geometry">
            <mxPoint x="515.0588235294122" y="1685" as="sourcePoint" />
            <mxPoint x="134.11764705882342" y="1735.5" as="targetPoint" />
            <Array as="points">
              <mxPoint x="515" y="1700" />
            </Array>
          </mxGeometry>
        </mxCell>
        <mxCell id="-1jfbta0snUhKDycxlzX-36" value="&lt;span style=&quot;font-size: 15px&quot;&gt;车辆中心&lt;/span&gt;" style="text;html=1;strokeColor=none;fillColor=none;align=center;verticalAlign=middle;whiteSpace=wrap;rounded=0;dashed=1;labelBackgroundColor=#D4E1F5;fontSize=12;fontColor=#1A1A1A;" parent="1" vertex="1">
          <mxGeometry x="1011" y="1950" width="79" height="50" as="geometry" />
        </mxCell>
        <mxCell id="-1jfbta0snUhKDycxlzX-38" value="&lt;span style=&quot;font-size: 15px&quot;&gt;积分中心&lt;/span&gt;" style="text;html=1;strokeColor=none;fillColor=none;align=center;verticalAlign=middle;whiteSpace=wrap;rounded=0;dashed=1;labelBackgroundColor=#D4E1F5;fontSize=12;fontColor=#1A1A1A;" parent="1" vertex="1">
          <mxGeometry x="1001" y="2140" width="79" height="50" as="geometry" />
        </mxCell>
        <mxCell id="-1jfbta0snUhKDycxlzX-40" value="" style="shape=link;html=1;rounded=0;endArrow=oval;endFill=0;" parent="1" edge="1">
          <mxGeometry width="100" relative="1" as="geometry">
            <mxPoint x="-520" y="2760" as="sourcePoint" />
            <mxPoint x="3880" y="2750" as="targetPoint" />
          </mxGeometry>
        </mxCell>
        <mxCell id="-1jfbta0snUhKDycxlzX-45" style="edgeStyle=orthogonalEdgeStyle;rounded=0;orthogonalLoop=1;jettySize=auto;html=1;dashed=1;endArrow=classic;endFill=1;" parent="1" source="-1jfbta0snUhKDycxlzX-43" target="-1jfbta0snUhKDycxlzX-17" edge="1">
          <mxGeometry relative="1" as="geometry" />
        </mxCell>
        <mxCell id="-1jfbta0snUhKDycxlzX-46" style="edgeStyle=orthogonalEdgeStyle;rounded=0;orthogonalLoop=1;jettySize=auto;html=1;dashed=1;endArrow=classic;endFill=1;" parent="1" source="-1jfbta0snUhKDycxlzX-43" target="nJZEPm9KAdilQFLufLrE-113" edge="1">
          <mxGeometry relative="1" as="geometry" />
        </mxCell>
        <mxCell id="-1jfbta0snUhKDycxlzX-43" value="AWS NAT" style="rounded=0;whiteSpace=wrap;html=1;" parent="1" vertex="1">
          <mxGeometry x="474.42999999999984" y="3000" width="83.13" height="50" as="geometry" />
        </mxCell>
        <mxCell id="nJZEPm9KAdilQFLufLrE-100" style="edgeStyle=orthogonalEdgeStyle;rounded=0;orthogonalLoop=1;jettySize=auto;html=1;dashed=1;fontSize=13;fontColor=#1A1A1A;endArrow=classic;endFill=1;strokeWidth=1;" parent="1" source="nJZEPm9KAdilQFLufLrE-97" target="nJZEPm9KAdilQFLufLrE-98" edge="1">
          <mxGeometry relative="1" as="geometry" />
        </mxCell>
        <UserObject label="&lt;font style=&quot;font-size: 13px&quot;&gt;bt-user-community-service&lt;br&gt;社区中心（资讯）&lt;br&gt;&lt;/font&gt;" link="https://wiki.gwmdevops.com/x/-Ir8" linkTarget="_blank" id="-6kII226NFBv02iHwysv-1">
          <mxCell style="rounded=0;whiteSpace=wrap;html=1;" parent="1" vertex="1">
            <mxGeometry x="55.879999999999995" y="1860" width="140" height="50" as="geometry" />
          </mxCell>
        </UserObject>
        <UserObject label="&lt;font style=&quot;font-size: 13px&quot;&gt;bt-campaigins-manage-service&lt;br&gt;社区中心（活动、文章）&lt;br&gt;&lt;/font&gt;" link="https://wiki.gwmdevops.com/x/-Ir8" linkTarget="_blank" id="-6kII226NFBv02iHwysv-4">
          <mxCell style="rounded=0;whiteSpace=wrap;html=1;" parent="1" vertex="1">
            <mxGeometry x="55.88" y="1930" width="164.12" height="50" as="geometry" />
          </mxCell>
        </UserObject>
      </root>
    </mxGraphModel>
  </diagram>
</mxfile>
